<!DOCTYPE svg PUBLIC "-//W3C//DTD SVG 1.1//EN" "http://www.w3.org/Graphics/SVG/1.1/DTD/svg11.dtd">
<svg xmlns="http://www.w3.org/2000/svg" xmlns:xlink="http://www.w3.org/1999/xlink" xmlns:jfreesvg="http://www.jfree.org/jfreesvg/svg" width="800" height="600" text-rendering="auto" shape-rendering="auto">
<defs><clipPath id="_4199632935390clip-0"><path d="M 0 0 L 800 0 L 800 600 L 0 600 L 0 0 Z "/></clipPath>
<clipPath id="_4199632935390clip-1"><path d="M 312.5 249.5 L 312.5 1049.5 L -287.5 1049.5 L -287.5 249.5 L 312.5 249.5 Z "/></clipPath>
<clipPath id="_4199632935390clip-2"><path d="M 70 34 L 70 528 L 788 528 L 788 34 Z "/></clipPath>
</defs>
<rect x="0" y="0" width="800" height="600" style="fill: rgb(255,255,255); fill-opacity: 1.0" clip-path="url(#_4199632935390clip-0)"/><g ><text x="50.5" y="19.56" style="fill: rgb(0,0,0); fill-opacity: 1.0; font-family: sans-serif; font-size: 20px; font-weight: bold;" clip-path="url(#_4199632935390clip-0)">Zachowanie inflacji w trakcie 50 tur z zaburzeniem w turze 20</text></g><rect x="354" y="578" width="92" height="21" style="fill: rgb(255,255,255); fill-opacity: 1.0" clip-path="url(#_4199632935390clip-0)"/><g style="stroke-width: 1.0;stroke: rgb(255,85,85);stroke-opacity: 1.0;stroke-linecap: square;stroke-linejoin: bevel;shape-rendering:geometricPrecision;; fill: none" clip-path="url(#_4199632935390clip-0)"><path d="M 357 588.5 L 371 588.5"/></g><g ><text x="375" y="592.14" style="fill: rgb(64,64,64); fill-opacity: 1.0; font-family: sans-serif; font-size: 12px;" clip-path="url(#_4199632935390clip-0)">Inflacja (%)</text></g><rect x="70" y="34" width="718" height="494" style="fill: rgb(192,192,192); fill-opacity: 1.0" clip-path="url(#_4199632935390clip-0)"/><line x1="70" y1="532" x2="788" y2="532" style="stroke-width: 0.5;stroke: rgb(128,128,128);stroke-opacity: 1.0;stroke-linecap: square;shape-rendering:crispEdges;" clip-path="url(#_4199632935390clip-0)"/><g ><text x="66" y="548.17" style="fill: rgb(64,64,64); fill-opacity: 1.0; font-family: sans-serif; font-size: 12px;" clip-path="url(#_4199632935390clip-0)">0</text></g><line x1="70" y1="534" x2="70" y2="532" style="stroke-width: 0.5;stroke: rgb(128,128,128);stroke-opacity: 1.0;stroke-linecap: square;shape-rendering:crispEdges;" clip-path="url(#_4199632935390clip-0)"/><g ><text x="93.38" y="548.17" style="fill: rgb(64,64,64); fill-opacity: 1.0; font-family: sans-serif; font-size: 12px;" clip-path="url(#_4199632935390clip-0)">2</text></g><line x1="97.38" y1="534" x2="97.38" y2="532" style="stroke-width: 0.5;stroke: rgb(128,128,128);stroke-opacity: 1.0;stroke-linecap: square;shape-rendering:crispEdges;" clip-path="url(#_4199632935390clip-0)"/><g ><text x="120.76" y="548.17" style="fill: rgb(64,64,64); fill-opacity: 1.0; font-family: sans-serif; font-size: 12px;" clip-path="url(#_4199632935390clip-0)">4</text></g><line x1="124.76" y1="534" x2="124.76" y2="532" style="stroke-width: 0.5;stroke: rgb(128,128,128);stroke-opacity: 1.0;stroke-linecap: square;shape-rendering:crispEdges;" clip-path="url(#_4199632935390clip-0)"/><g ><text x="148.14" y="548.17" style="fill: rgb(64,64,64); fill-opacity: 1.0; font-family: sans-serif; font-size: 12px;" clip-path="url(#_4199632935390clip-0)">6</text></g><line x1="152.14" y1="534" x2="152.14" y2="532" style="stroke-width: 0.5;stroke: rgb(128,128,128);stroke-opacity: 1.0;stroke-linecap: square;shape-rendering:crispEdges;" clip-path="url(#_4199632935390clip-0)"/><g ><text x="175.51" y="548.17" style="fill: rgb(64,64,64); fill-opacity: 1.0; font-family: sans-serif; font-size: 12px;" clip-path="url(#_4199632935390clip-0)">8</text></g><line x1="179.51" y1="534" x2="179.51" y2="532" style="stroke-width: 0.5;stroke: rgb(128,128,128);stroke-opacity: 1.0;stroke-linecap: square;shape-rendering:crispEdges;" clip-path="url(#_4199632935390clip-0)"/><g ><text x="199.39" y="548.17" style="fill: rgb(64,64,64); fill-opacity: 1.0; font-family: sans-serif; font-size: 12px;" clip-path="url(#_4199632935390clip-0)">10</text></g><line x1="206.89" y1="534" x2="206.89" y2="532" style="stroke-width: 0.5;stroke: rgb(128,128,128);stroke-opacity: 1.0;stroke-linecap: square;shape-rendering:crispEdges;" clip-path="url(#_4199632935390clip-0)"/><g ><text x="226.77" y="548.17" style="fill: rgb(64,64,64); fill-opacity: 1.0; font-family: sans-serif; font-size: 12px;" clip-path="url(#_4199632935390clip-0)">12</text></g><line x1="234.27" y1="534" x2="234.27" y2="532" style="stroke-width: 0.5;stroke: rgb(128,128,128);stroke-opacity: 1.0;stroke-linecap: square;shape-rendering:crispEdges;" clip-path="url(#_4199632935390clip-0)"/><g ><text x="254.15" y="548.17" style="fill: rgb(64,64,64); fill-opacity: 1.0; font-family: sans-serif; font-size: 12px;" clip-path="url(#_4199632935390clip-0)">14</text></g><line x1="261.65" y1="534" x2="261.65" y2="532" style="stroke-width: 0.5;stroke: rgb(128,128,128);stroke-opacity: 1.0;stroke-linecap: square;shape-rendering:crispEdges;" clip-path="url(#_4199632935390clip-0)"/><g ><text x="281.53" y="548.17" style="fill: rgb(64,64,64); fill-opacity: 1.0; font-family: sans-serif; font-size: 12px;" clip-path="url(#_4199632935390clip-0)">16</text></g><line x1="289.03" y1="534" x2="289.03" y2="532" style="stroke-width: 0.5;stroke: rgb(128,128,128);stroke-opacity: 1.0;stroke-linecap: square;shape-rendering:crispEdges;" clip-path="url(#_4199632935390clip-0)"/><g ><text x="308.91" y="548.17" style="fill: rgb(64,64,64); fill-opacity: 1.0; font-family: sans-serif; font-size: 12px;" clip-path="url(#_4199632935390clip-0)">18</text></g><line x1="316.41" y1="534" x2="316.41" y2="532" style="stroke-width: 0.5;stroke: rgb(128,128,128);stroke-opacity: 1.0;stroke-linecap: square;shape-rendering:crispEdges;" clip-path="url(#_4199632935390clip-0)"/><g ><text x="336.28" y="548.17" style="fill: rgb(64,64,64); fill-opacity: 1.0; font-family: sans-serif; font-size: 12px;" clip-path="url(#_4199632935390clip-0)">20</text></g><line x1="343.78" y1="534" x2="343.78" y2="532" style="stroke-width: 0.5;stroke: rgb(128,128,128);stroke-opacity: 1.0;stroke-linecap: square;shape-rendering:crispEdges;" clip-path="url(#_4199632935390clip-0)"/><g ><text x="363.66" y="548.17" style="fill: rgb(64,64,64); fill-opacity: 1.0; font-family: sans-serif; font-size: 12px;" clip-path="url(#_4199632935390clip-0)">22</text></g><line x1="371.16" y1="534" x2="371.16" y2="532" style="stroke-width: 0.5;stroke: rgb(128,128,128);stroke-opacity: 1.0;stroke-linecap: square;shape-rendering:crispEdges;" clip-path="url(#_4199632935390clip-0)"/><g ><text x="391.04" y="548.17" style="fill: rgb(64,64,64); fill-opacity: 1.0; font-family: sans-serif; font-size: 12px;" clip-path="url(#_4199632935390clip-0)">24</text></g><line x1="398.54" y1="534" x2="398.54" y2="532" style="stroke-width: 0.5;stroke: rgb(128,128,128);stroke-opacity: 1.0;stroke-linecap: square;shape-rendering:crispEdges;" clip-path="url(#_4199632935390clip-0)"/><g ><text x="418.42" y="548.17" style="fill: rgb(64,64,64); fill-opacity: 1.0; font-family: sans-serif; font-size: 12px;" clip-path="url(#_4199632935390clip-0)">26</text></g><line x1="425.92" y1="534" x2="425.92" y2="532" style="stroke-width: 0.5;stroke: rgb(128,128,128);stroke-opacity: 1.0;stroke-linecap: square;shape-rendering:crispEdges;" clip-path="url(#_4199632935390clip-0)"/><g ><text x="445.8" y="548.17" style="fill: rgb(64,64,64); fill-opacity: 1.0; font-family: sans-serif; font-size: 12px;" clip-path="url(#_4199632935390clip-0)">28</text></g><line x1="453.3" y1="534" x2="453.3" y2="532" style="stroke-width: 0.5;stroke: rgb(128,128,128);stroke-opacity: 1.0;stroke-linecap: square;shape-rendering:crispEdges;" clip-path="url(#_4199632935390clip-0)"/><g ><text x="473.18" y="548.17" style="fill: rgb(64,64,64); fill-opacity: 1.0; font-family: sans-serif; font-size: 12px;" clip-path="url(#_4199632935390clip-0)">30</text></g><line x1="480.68" y1="534" x2="480.68" y2="532" style="stroke-width: 0.5;stroke: rgb(128,128,128);stroke-opacity: 1.0;stroke-linecap: square;shape-rendering:crispEdges;" clip-path="url(#_4199632935390clip-0)"/><g ><text x="500.56" y="548.17" style="fill: rgb(64,64,64); fill-opacity: 1.0; font-family: sans-serif; font-size: 12px;" clip-path="url(#_4199632935390clip-0)">32</text></g><line x1="508.06" y1="534" x2="508.06" y2="532" style="stroke-width: 0.5;stroke: rgb(128,128,128);stroke-opacity: 1.0;stroke-linecap: square;shape-rendering:crispEdges;" clip-path="url(#_4199632935390clip-0)"/><g ><text x="527.93" y="548.17" style="fill: rgb(64,64,64); fill-opacity: 1.0; font-family: sans-serif; font-size: 12px;" clip-path="url(#_4199632935390clip-0)">34</text></g><line x1="535.43" y1="534" x2="535.43" y2="532" style="stroke-width: 0.5;stroke: rgb(128,128,128);stroke-opacity: 1.0;stroke-linecap: square;shape-rendering:crispEdges;" clip-path="url(#_4199632935390clip-0)"/><g ><text x="555.31" y="548.17" style="fill: rgb(64,64,64); fill-opacity: 1.0; font-family: sans-serif; font-size: 12px;" clip-path="url(#_4199632935390clip-0)">36</text></g><line x1="562.81" y1="534" x2="562.81" y2="532" style="stroke-width: 0.5;stroke: rgb(128,128,128);stroke-opacity: 1.0;stroke-linecap: square;shape-rendering:crispEdges;" clip-path="url(#_4199632935390clip-0)"/><g ><text x="582.69" y="548.17" style="fill: rgb(64,64,64); fill-opacity: 1.0; font-family: sans-serif; font-size: 12px;" clip-path="url(#_4199632935390clip-0)">38</text></g><line x1="590.19" y1="534" x2="590.19" y2="532" style="stroke-width: 0.5;stroke: rgb(128,128,128);stroke-opacity: 1.0;stroke-linecap: square;shape-rendering:crispEdges;" clip-path="url(#_4199632935390clip-0)"/><g ><text x="610.07" y="548.17" style="fill: rgb(64,64,64); fill-opacity: 1.0; font-family: sans-serif; font-size: 12px;" clip-path="url(#_4199632935390clip-0)">40</text></g><line x1="617.57" y1="534" x2="617.57" y2="532" style="stroke-width: 0.5;stroke: rgb(128,128,128);stroke-opacity: 1.0;stroke-linecap: square;shape-rendering:crispEdges;" clip-path="url(#_4199632935390clip-0)"/><g ><text x="637.45" y="548.17" style="fill: rgb(64,64,64); fill-opacity: 1.0; font-family: sans-serif; font-size: 12px;" clip-path="url(#_4199632935390clip-0)">42</text></g><line x1="644.95" y1="534" x2="644.95" y2="532" style="stroke-width: 0.5;stroke: rgb(128,128,128);stroke-opacity: 1.0;stroke-linecap: square;shape-rendering:crispEdges;" clip-path="url(#_4199632935390clip-0)"/><g ><text x="664.83" y="548.17" style="fill: rgb(64,64,64); fill-opacity: 1.0; font-family: sans-serif; font-size: 12px;" clip-path="url(#_4199632935390clip-0)">44</text></g><line x1="672.33" y1="534" x2="672.33" y2="532" style="stroke-width: 0.5;stroke: rgb(128,128,128);stroke-opacity: 1.0;stroke-linecap: square;shape-rendering:crispEdges;" clip-path="url(#_4199632935390clip-0)"/><g ><text x="692.2" y="548.17" style="fill: rgb(64,64,64); fill-opacity: 1.0; font-family: sans-serif; font-size: 12px;" clip-path="url(#_4199632935390clip-0)">46</text></g><line x1="699.7" y1="534" x2="699.7" y2="532" style="stroke-width: 0.5;stroke: rgb(128,128,128);stroke-opacity: 1.0;stroke-linecap: square;shape-rendering:crispEdges;" clip-path="url(#_4199632935390clip-0)"/><g ><text x="719.58" y="548.17" style="fill: rgb(64,64,64); fill-opacity: 1.0; font-family: sans-serif; font-size: 12px;" clip-path="url(#_4199632935390clip-0)">48</text></g><line x1="727.08" y1="534" x2="727.08" y2="532" style="stroke-width: 0.5;stroke: rgb(128,128,128);stroke-opacity: 1.0;stroke-linecap: square;shape-rendering:crispEdges;" clip-path="url(#_4199632935390clip-0)"/><g ><text x="746.96" y="548.17" style="fill: rgb(64,64,64); fill-opacity: 1.0; font-family: sans-serif; font-size: 12px;" clip-path="url(#_4199632935390clip-0)">50</text></g><line x1="754.46" y1="534" x2="754.46" y2="532" style="stroke-width: 0.5;stroke: rgb(128,128,128);stroke-opacity: 1.0;stroke-linecap: square;shape-rendering:crispEdges;" clip-path="url(#_4199632935390clip-0)"/><g ><text x="774.34" y="548.17" style="fill: rgb(64,64,64); fill-opacity: 1.0; font-family: sans-serif; font-size: 12px;" clip-path="url(#_4199632935390clip-0)">52</text></g><line x1="781.84" y1="534" x2="781.84" y2="532" style="stroke-width: 0.5;stroke: rgb(128,128,128);stroke-opacity: 1.0;stroke-linecap: square;shape-rendering:crispEdges;" clip-path="url(#_4199632935390clip-0)"/><g ><text x="411" y="566.67" style="fill: rgb(64,64,64); fill-opacity: 1.0; font-family: sans-serif; font-size: 14px; font-weight: bold;" clip-path="url(#_4199632935390clip-0)">Tura</text></g><line x1="66" y1="34" x2="66" y2="528" style="stroke-width: 0.5;stroke: rgb(128,128,128);stroke-opacity: 1.0;stroke-linecap: square;shape-rendering:crispEdges;" clip-path="url(#_4199632935390clip-0)"/><g ><text x="52" y="532.67" style="fill: rgb(64,64,64); fill-opacity: 1.0; font-family: sans-serif; font-size: 12px;" clip-path="url(#_4199632935390clip-0)">0</text></g><line x1="64" y1="528" x2="66" y2="528" style="stroke-width: 0.5;stroke: rgb(128,128,128);stroke-opacity: 1.0;stroke-linecap: square;shape-rendering:crispEdges;" clip-path="url(#_4199632935390clip-0)"/><g ><text x="52" y="498.01" style="fill: rgb(64,64,64); fill-opacity: 1.0; font-family: sans-serif; font-size: 12px;" clip-path="url(#_4199632935390clip-0)">1</text></g><line x1="64" y1="493.34" x2="66" y2="493.34" style="stroke-width: 0.5;stroke: rgb(128,128,128);stroke-opacity: 1.0;stroke-linecap: square;shape-rendering:crispEdges;" clip-path="url(#_4199632935390clip-0)"/><g ><text x="52" y="463.34" style="fill: rgb(64,64,64); fill-opacity: 1.0; font-family: sans-serif; font-size: 12px;" clip-path="url(#_4199632935390clip-0)">2</text></g><line x1="64" y1="458.67" x2="66" y2="458.67" style="stroke-width: 0.5;stroke: rgb(128,128,128);stroke-opacity: 1.0;stroke-linecap: square;shape-rendering:crispEdges;" clip-path="url(#_4199632935390clip-0)"/><g ><text x="52" y="428.68" style="fill: rgb(64,64,64); fill-opacity: 1.0; font-family: sans-serif; font-size: 12px;" clip-path="url(#_4199632935390clip-0)">3</text></g><line x1="64" y1="424.01" x2="66" y2="424.01" style="stroke-width: 0.5;stroke: rgb(128,128,128);stroke-opacity: 1.0;stroke-linecap: square;shape-rendering:crispEdges;" clip-path="url(#_4199632935390clip-0)"/><g ><text x="52" y="394.02" style="fill: rgb(64,64,64); fill-opacity: 1.0; font-family: sans-serif; font-size: 12px;" clip-path="url(#_4199632935390clip-0)">4</text></g><line x1="64" y1="389.35" x2="66" y2="389.35" style="stroke-width: 0.5;stroke: rgb(128,128,128);stroke-opacity: 1.0;stroke-linecap: square;shape-rendering:crispEdges;" clip-path="url(#_4199632935390clip-0)"/><g ><text x="52" y="359.36" style="fill: rgb(64,64,64); fill-opacity: 1.0; font-family: sans-serif; font-size: 12px;" clip-path="url(#_4199632935390clip-0)">5</text></g><line x1="64" y1="354.69" x2="66" y2="354.69" style="stroke-width: 0.5;stroke: rgb(128,128,128);stroke-opacity: 1.0;stroke-linecap: square;shape-rendering:crispEdges;" clip-path="url(#_4199632935390clip-0)"/><g ><text x="52" y="324.69" style="fill: rgb(64,64,64); fill-opacity: 1.0; font-family: sans-serif; font-size: 12px;" clip-path="url(#_4199632935390clip-0)">6</text></g><line x1="64" y1="320.02" x2="66" y2="320.02" style="stroke-width: 0.5;stroke: rgb(128,128,128);stroke-opacity: 1.0;stroke-linecap: square;shape-rendering:crispEdges;" clip-path="url(#_4199632935390clip-0)"/><g ><text x="52" y="290.03" style="fill: rgb(64,64,64); fill-opacity: 1.0; font-family: sans-serif; font-size: 12px;" clip-path="url(#_4199632935390clip-0)">7</text></g><line x1="64" y1="285.36" x2="66" y2="285.36" style="stroke-width: 0.5;stroke: rgb(128,128,128);stroke-opacity: 1.0;stroke-linecap: square;shape-rendering:crispEdges;" clip-path="url(#_4199632935390clip-0)"/><g ><text x="52" y="255.37" style="fill: rgb(64,64,64); fill-opacity: 1.0; font-family: sans-serif; font-size: 12px;" clip-path="url(#_4199632935390clip-0)">8</text></g><line x1="64" y1="250.7" x2="66" y2="250.7" style="stroke-width: 0.5;stroke: rgb(128,128,128);stroke-opacity: 1.0;stroke-linecap: square;shape-rendering:crispEdges;" clip-path="url(#_4199632935390clip-0)"/><g ><text x="52" y="220.7" style="fill: rgb(64,64,64); fill-opacity: 1.0; font-family: sans-serif; font-size: 12px;" clip-path="url(#_4199632935390clip-0)">9</text></g><line x1="64" y1="216.03" x2="66" y2="216.03" style="stroke-width: 0.5;stroke: rgb(128,128,128);stroke-opacity: 1.0;stroke-linecap: square;shape-rendering:crispEdges;" clip-path="url(#_4199632935390clip-0)"/><g ><text x="45" y="186.04" style="fill: rgb(64,64,64); fill-opacity: 1.0; font-family: sans-serif; font-size: 12px;" clip-path="url(#_4199632935390clip-0)">10</text></g><line x1="64" y1="181.37" x2="66" y2="181.37" style="stroke-width: 0.5;stroke: rgb(128,128,128);stroke-opacity: 1.0;stroke-linecap: square;shape-rendering:crispEdges;" clip-path="url(#_4199632935390clip-0)"/><g ><text x="45" y="151.38" style="fill: rgb(64,64,64); fill-opacity: 1.0; font-family: sans-serif; font-size: 12px;" clip-path="url(#_4199632935390clip-0)">11</text></g><line x1="64" y1="146.71" x2="66" y2="146.71" style="stroke-width: 0.5;stroke: rgb(128,128,128);stroke-opacity: 1.0;stroke-linecap: square;shape-rendering:crispEdges;" clip-path="url(#_4199632935390clip-0)"/><g ><text x="45" y="116.72" style="fill: rgb(64,64,64); fill-opacity: 1.0; font-family: sans-serif; font-size: 12px;" clip-path="url(#_4199632935390clip-0)">12</text></g><line x1="64" y1="112.05" x2="66" y2="112.05" style="stroke-width: 0.5;stroke: rgb(128,128,128);stroke-opacity: 1.0;stroke-linecap: square;shape-rendering:crispEdges;" clip-path="url(#_4199632935390clip-0)"/><g ><text x="45" y="82.05" style="fill: rgb(64,64,64); fill-opacity: 1.0; font-family: sans-serif; font-size: 12px;" clip-path="url(#_4199632935390clip-0)">13</text></g><line x1="64" y1="77.38" x2="66" y2="77.38" style="stroke-width: 0.5;stroke: rgb(128,128,128);stroke-opacity: 1.0;stroke-linecap: square;shape-rendering:crispEdges;" clip-path="url(#_4199632935390clip-0)"/><g ><text x="45" y="47.39" style="fill: rgb(64,64,64); fill-opacity: 1.0; font-family: sans-serif; font-size: 12px;" clip-path="url(#_4199632935390clip-0)">14</text></g><line x1="64" y1="42.72" x2="66" y2="42.72" style="stroke-width: 0.5;stroke: rgb(128,128,128);stroke-opacity: 1.0;stroke-linecap: square;shape-rendering:crispEdges;" clip-path="url(#_4199632935390clip-0)"/><g style="fill: rgb(64,64,64); fill-opacity: 1.0; stroke: none" transform="matrix(0,-1,1,0,-249.5,312.5)" clip-path="url(#_4199632935390clip-1)"><path d="M -12.22 276 L -9.58 276 L -9.58 286.2 L -12.22 286.2 L -12.22 276 Z  M 0.58 281.54 L 0.58 286.2 L -1.88 286.2 L -1.88 285.43 L -1.88 282.64 Q -1.88 281.64 -1.93 281.26 Q -1.96 280.89 -2.07 280.71 Q -2.21 280.46 -2.46 280.34 Q -2.71 280.2 -3.03 280.2 Q -3.79 280.2 -4.23 280.79 Q -4.67 281.39 -4.67 282.43 L -4.67 286.2 L -7.12 286.2 L -7.12 278.54 L -4.67 278.54 L -4.67 279.67 Q -4.12 279 -3.49 278.68 Q -2.87 278.35 -2.12 278.35 Q -0.79 278.35 -0.1 279.17 Q 0.58 279.98 0.58 281.54 Z  M 7.89 275.56 L 7.89 277.17 L 6.54 277.17 Q 6.02 277.17 5.82 277.35 Q 5.61 277.54 5.61 278.01 L 5.61 278.54 L 7.69 278.54 L 7.69 280.29 L 5.61 280.29 L 5.61 286.2 L 3.16 286.2 L 3.16 280.29 L 1.94 280.29 L 1.94 278.54 L 3.16 278.54 L 3.16 278.01 Q 3.16 276.76 3.85 276.17 Q 4.55 275.56 6.02 275.56 L 7.89 275.56 Z  M 8.94 275.56 L 11.39 275.56 L 11.39 286.2 L 8.94 286.2 L 8.94 275.56 Z  M 17.17 282.75 Q 16.41 282.75 16.02 283.01 Q 15.63 283.28 15.63 283.78 Q 15.63 284.25 15.94 284.51 Q 16.25 284.78 16.82 284.78 Q 17.5 284.78 17.97 284.28 Q 18.44 283.78 18.44 283.03 L 18.44 282.75 L 17.17 282.75 Z  M 20.91 281.82 L 20.91 286.2 L 18.44 286.2 L 18.44 285.06 Q 17.96 285.76 17.33 286.09 Q 16.72 286.4 15.85 286.4 Q 14.64 286.4 13.91 285.71 Q 13.17 285.01 13.17 283.9 Q 13.17 282.56 14.1 281.93 Q 15.02 281.29 17 281.29 L 18.44 281.29 L 18.44 281.1 Q 18.44 280.53 17.99 280.26 Q 17.53 279.98 16.57 279.98 Q 15.77 279.98 15.1 280.14 Q 14.42 280.29 13.83 280.62 L 13.83 278.75 Q 14.63 278.56 15.41 278.46 Q 16.21 278.35 17 278.35 Q 19.08 278.35 19.99 279.18 Q 20.91 280 20.91 281.82 Z  M 29.37 278.78 L 29.37 280.78 Q 28.87 280.43 28.37 280.28 Q 27.87 280.1 27.33 280.1 Q 26.31 280.1 25.73 280.71 Q 25.17 281.31 25.17 282.37 Q 25.17 283.45 25.73 284.06 Q 26.31 284.65 27.33 284.65 Q 27.9 284.65 28.42 284.48 Q 28.93 284.31 29.37 283.96 L 29.37 285.98 Q 28.79 286.18 28.2 286.29 Q 27.62 286.4 27.03 286.4 Q 24.95 286.4 23.78 285.34 Q 22.62 284.28 22.62 282.37 Q 22.62 280.48 23.78 279.42 Q 24.95 278.35 27.03 278.35 Q 27.62 278.35 28.2 278.46 Q 28.79 278.57 29.37 278.78 Z  M 31.48 278.54 L 33.94 278.54 L 33.94 286.06 Q 33.94 287.6 33.19 288.4 Q 32.45 289.21 31.06 289.21 L 29.84 289.21 L 29.84 287.62 L 30.26 287.62 Q 30.97 287.62 31.22 287.29 Q 31.48 286.98 31.48 286.06 L 31.48 278.54 Z  M 31.48 275.56 L 33.94 275.56 L 33.94 277.56 L 31.48 277.56 L 31.48 275.56 Z  M 39.72 282.75 Q 38.95 282.75 38.56 283.01 Q 38.17 283.28 38.17 283.78 Q 38.17 284.25 38.49 284.51 Q 38.8 284.78 39.36 284.78 Q 40.05 284.78 40.52 284.28 Q 40.99 283.78 40.99 283.03 L 40.99 282.75 L 39.72 282.75 Z  M 43.45 281.82 L 43.45 286.2 L 40.99 286.2 L 40.99 285.06 Q 40.5 285.76 39.88 286.09 Q 39.27 286.4 38.39 286.4 Q 37.19 286.4 36.45 285.71 Q 35.72 285.01 35.72 283.9 Q 35.72 282.56 36.64 281.93 Q 37.56 281.29 39.55 281.29 L 40.99 281.29 L 40.99 281.1 Q 40.99 280.53 40.53 280.26 Q 40.08 279.98 39.11 279.98 Q 38.31 279.98 37.64 280.14 Q 36.97 280.29 36.38 280.62 L 36.38 278.75 Q 37.17 278.56 37.95 278.46 Q 38.75 278.35 39.55 278.35 Q 41.63 278.35 42.53 279.18 Q 43.45 280 43.45 281.82 Z  M 54.71 288.04 L 52.68 288.04 Q 51.63 286.35 51.13 284.84 Q 50.63 283.31 50.63 281.82 Q 50.63 280.32 51.13 278.79 Q 51.63 277.25 52.68 275.57 L 54.71 275.57 Q 53.84 277.2 53.4 278.75 Q 52.96 280.29 52.96 281.81 Q 52.96 283.31 53.38 284.87 Q 53.82 286.42 54.71 288.04 Z  M 66.67 281.98 Q 66.19 281.98 65.92 282.4 Q 65.66 282.82 65.66 283.6 Q 65.66 284.39 65.92 284.81 Q 66.19 285.23 66.67 285.23 Q 67.17 285.23 67.42 284.81 Q 67.69 284.39 67.69 283.6 Q 67.69 282.82 67.42 282.4 Q 67.16 281.98 66.67 281.98 Z  M 66.67 280.84 Q 67.96 280.84 68.67 281.57 Q 69.41 282.31 69.41 283.6 Q 69.41 284.9 68.67 285.65 Q 67.96 286.4 66.67 286.4 Q 65.41 286.4 64.67 285.65 Q 63.94 284.9 63.94 283.6 Q 63.94 282.32 64.67 281.59 Q 65.41 280.84 66.67 280.84 Z  M 60.41 286.4 L 58.89 286.4 L 65.28 275.81 L 66.8 275.81 L 60.41 286.4 Z  M 59 275.81 Q 60.28 275.81 61 276.56 Q 61.74 277.29 61.74 278.59 Q 61.74 279.87 61 280.62 Q 60.28 281.37 59 281.37 Q 57.74 281.37 57 280.62 Q 56.28 279.87 56.28 278.59 Q 56.28 277.29 57 276.56 Q 57.74 275.81 59 275.81 Z  M 59 276.95 Q 58.52 276.95 58.25 277.39 Q 57.99 277.81 57.99 278.59 Q 57.99 279.37 58.25 279.81 Q 58.52 280.23 59 280.23 Q 59.5 280.23 59.77 279.81 Q 60.03 279.37 60.03 278.59 Q 60.03 277.81 59.77 277.39 Q 59.5 276.95 59 276.95 Z  M 70.98 288.04 Q 71.86 286.42 72.29 284.87 Q 72.73 283.31 72.73 281.81 Q 72.73 280.29 72.29 278.75 Q 71.86 277.2 70.98 275.57 L 73.01 275.57 Q 74.04 277.25 74.54 278.79 Q 75.06 280.32 75.06 281.82 Q 75.06 283.31 74.56 284.84 Q 74.06 286.35 73.01 288.04 L 70.98 288.04 Z "/></g><line x1="70" y1="34" x2="70" y2="528" style="stroke-width: 0.5;stroke: rgb(255,255,255);stroke-opacity: 1.0;stroke-linejoin: bevel;stroke-dasharray: 2.0, 2.0;shape-rendering:crispEdges;" clip-path="url(#_4199632935390clip-2)"/><line x1="97.38" y1="34" x2="97.38" y2="528" style="stroke-width: 0.5;stroke: rgb(255,255,255);stroke-opacity: 1.0;stroke-linejoin: bevel;stroke-dasharray: 2.0, 2.0;shape-rendering:crispEdges;" clip-path="url(#_4199632935390clip-2)"/><line x1="124.76" y1="34" x2="124.76" y2="528" style="stroke-width: 0.5;stroke: rgb(255,255,255);stroke-opacity: 1.0;stroke-linejoin: bevel;stroke-dasharray: 2.0, 2.0;shape-rendering:crispEdges;" clip-path="url(#_4199632935390clip-2)"/><line x1="152.14" y1="34" x2="152.14" y2="528" style="stroke-width: 0.5;stroke: rgb(255,255,255);stroke-opacity: 1.0;stroke-linejoin: bevel;stroke-dasharray: 2.0, 2.0;shape-rendering:crispEdges;" clip-path="url(#_4199632935390clip-2)"/><line x1="179.51" y1="34" x2="179.51" y2="528" style="stroke-width: 0.5;stroke: rgb(255,255,255);stroke-opacity: 1.0;stroke-linejoin: bevel;stroke-dasharray: 2.0, 2.0;shape-rendering:crispEdges;" clip-path="url(#_4199632935390clip-2)"/><line x1="206.89" y1="34" x2="206.89" y2="528" style="stroke-width: 0.5;stroke: rgb(255,255,255);stroke-opacity: 1.0;stroke-linejoin: bevel;stroke-dasharray: 2.0, 2.0;shape-rendering:crispEdges;" clip-path="url(#_4199632935390clip-2)"/><line x1="234.27" y1="34" x2="234.27" y2="528" style="stroke-width: 0.5;stroke: rgb(255,255,255);stroke-opacity: 1.0;stroke-linejoin: bevel;stroke-dasharray: 2.0, 2.0;shape-rendering:crispEdges;" clip-path="url(#_4199632935390clip-2)"/><line x1="261.65" y1="34" x2="261.65" y2="528" style="stroke-width: 0.5;stroke: rgb(255,255,255);stroke-opacity: 1.0;stroke-linejoin: bevel;stroke-dasharray: 2.0, 2.0;shape-rendering:crispEdges;" clip-path="url(#_4199632935390clip-2)"/><line x1="289.03" y1="34" x2="289.03" y2="528" style="stroke-width: 0.5;stroke: rgb(255,255,255);stroke-opacity: 1.0;stroke-linejoin: bevel;stroke-dasharray: 2.0, 2.0;shape-rendering:crispEdges;" clip-path="url(#_4199632935390clip-2)"/><line x1="316.41" y1="34" x2="316.41" y2="528" style="stroke-width: 0.5;stroke: rgb(255,255,255);stroke-opacity: 1.0;stroke-linejoin: bevel;stroke-dasharray: 2.0, 2.0;shape-rendering:crispEdges;" clip-path="url(#_4199632935390clip-2)"/><line x1="343.78" y1="34" x2="343.78" y2="528" style="stroke-width: 0.5;stroke: rgb(255,255,255);stroke-opacity: 1.0;stroke-linejoin: bevel;stroke-dasharray: 2.0, 2.0;shape-rendering:crispEdges;" clip-path="url(#_4199632935390clip-2)"/><line x1="371.16" y1="34" x2="371.16" y2="528" style="stroke-width: 0.5;stroke: rgb(255,255,255);stroke-opacity: 1.0;stroke-linejoin: bevel;stroke-dasharray: 2.0, 2.0;shape-rendering:crispEdges;" clip-path="url(#_4199632935390clip-2)"/><line x1="398.54" y1="34" x2="398.54" y2="528" style="stroke-width: 0.5;stroke: rgb(255,255,255);stroke-opacity: 1.0;stroke-linejoin: bevel;stroke-dasharray: 2.0, 2.0;shape-rendering:crispEdges;" clip-path="url(#_4199632935390clip-2)"/><line x1="425.92" y1="34" x2="425.92" y2="528" style="stroke-width: 0.5;stroke: rgb(255,255,255);stroke-opacity: 1.0;stroke-linejoin: bevel;stroke-dasharray: 2.0, 2.0;shape-rendering:crispEdges;" clip-path="url(#_4199632935390clip-2)"/><line x1="453.3" y1="34" x2="453.3" y2="528" style="stroke-width: 0.5;stroke: rgb(255,255,255);stroke-opacity: 1.0;stroke-linejoin: bevel;stroke-dasharray: 2.0, 2.0;shape-rendering:crispEdges;" clip-path="url(#_4199632935390clip-2)"/><line x1="480.68" y1="34" x2="480.68" y2="528" style="stroke-width: 0.5;stroke: rgb(255,255,255);stroke-opacity: 1.0;stroke-linejoin: bevel;stroke-dasharray: 2.0, 2.0;shape-rendering:crispEdges;" clip-path="url(#_4199632935390clip-2)"/><line x1="508.06" y1="34" x2="508.06" y2="528" style="stroke-width: 0.5;stroke: rgb(255,255,255);stroke-opacity: 1.0;stroke-linejoin: bevel;stroke-dasharray: 2.0, 2.0;shape-rendering:crispEdges;" clip-path="url(#_4199632935390clip-2)"/><line x1="535.43" y1="34" x2="535.43" y2="528" style="stroke-width: 0.5;stroke: rgb(255,255,255);stroke-opacity: 1.0;stroke-linejoin: bevel;stroke-dasharray: 2.0, 2.0;shape-rendering:crispEdges;" clip-path="url(#_4199632935390clip-2)"/><line x1="562.81" y1="34" x2="562.81" y2="528" style="stroke-width: 0.5;stroke: rgb(255,255,255);stroke-opacity: 1.0;stroke-linejoin: bevel;stroke-dasharray: 2.0, 2.0;shape-rendering:crispEdges;" clip-path="url(#_4199632935390clip-2)"/><line x1="590.19" y1="34" x2="590.19" y2="528" style="stroke-width: 0.5;stroke: rgb(255,255,255);stroke-opacity: 1.0;stroke-linejoin: bevel;stroke-dasharray: 2.0, 2.0;shape-rendering:crispEdges;" clip-path="url(#_4199632935390clip-2)"/><line x1="617.57" y1="34" x2="617.57" y2="528" style="stroke-width: 0.5;stroke: rgb(255,255,255);stroke-opacity: 1.0;stroke-linejoin: bevel;stroke-dasharray: 2.0, 2.0;shape-rendering:crispEdges;" clip-path="url(#_4199632935390clip-2)"/><line x1="644.95" y1="34" x2="644.95" y2="528" style="stroke-width: 0.5;stroke: rgb(255,255,255);stroke-opacity: 1.0;stroke-linejoin: bevel;stroke-dasharray: 2.0, 2.0;shape-rendering:crispEdges;" clip-path="url(#_4199632935390clip-2)"/><line x1="672.33" y1="34" x2="672.33" y2="528" style="stroke-width: 0.5;stroke: rgb(255,255,255);stroke-opacity: 1.0;stroke-linejoin: bevel;stroke-dasharray: 2.0, 2.0;shape-rendering:crispEdges;" clip-path="url(#_4199632935390clip-2)"/><line x1="699.7" y1="34" x2="699.7" y2="528" style="stroke-width: 0.5;stroke: rgb(255,255,255);stroke-opacity: 1.0;stroke-linejoin: bevel;stroke-dasharray: 2.0, 2.0;shape-rendering:crispEdges;" clip-path="url(#_4199632935390clip-2)"/><line x1="727.08" y1="34" x2="727.08" y2="528" style="stroke-width: 0.5;stroke: rgb(255,255,255);stroke-opacity: 1.0;stroke-linejoin: bevel;stroke-dasharray: 2.0, 2.0;shape-rendering:crispEdges;" clip-path="url(#_4199632935390clip-2)"/><line x1="754.46" y1="34" x2="754.46" y2="528" style="stroke-width: 0.5;stroke: rgb(255,255,255);stroke-opacity: 1.0;stroke-linejoin: bevel;stroke-dasharray: 2.0, 2.0;shape-rendering:crispEdges;" clip-path="url(#_4199632935390clip-2)"/><line x1="781.84" y1="34" x2="781.84" y2="528" style="stroke-width: 0.5;stroke: rgb(255,255,255);stroke-opacity: 1.0;stroke-linejoin: bevel;stroke-dasharray: 2.0, 2.0;shape-rendering:crispEdges;" clip-path="url(#_4199632935390clip-2)"/><line x1="70" y1="528" x2="788" y2="528" style="stroke-width: 0.5;stroke: rgb(255,255,255);stroke-opacity: 1.0;stroke-linejoin: bevel;stroke-dasharray: 2.0, 2.0;shape-rendering:crispEdges;" clip-path="url(#_4199632935390clip-2)"/><line x1="70" y1="493.34" x2="788" y2="493.34" style="stroke-width: 0.5;stroke: rgb(255,255,255);stroke-opacity: 1.0;stroke-linejoin: bevel;stroke-dasharray: 2.0, 2.0;shape-rendering:crispEdges;" clip-path="url(#_4199632935390clip-2)"/><line x1="70" y1="458.67" x2="788" y2="458.67" style="stroke-width: 0.5;stroke: rgb(255,255,255);stroke-opacity: 1.0;stroke-linejoin: bevel;stroke-dasharray: 2.0, 2.0;shape-rendering:crispEdges;" clip-path="url(#_4199632935390clip-2)"/><line x1="70" y1="424.01" x2="788" y2="424.01" style="stroke-width: 0.5;stroke: rgb(255,255,255);stroke-opacity: 1.0;stroke-linejoin: bevel;stroke-dasharray: 2.0, 2.0;shape-rendering:crispEdges;" clip-path="url(#_4199632935390clip-2)"/><line x1="70" y1="389.35" x2="788" y2="389.35" style="stroke-width: 0.5;stroke: rgb(255,255,255);stroke-opacity: 1.0;stroke-linejoin: bevel;stroke-dasharray: 2.0, 2.0;shape-rendering:crispEdges;" clip-path="url(#_4199632935390clip-2)"/><line x1="70" y1="354.69" x2="788" y2="354.69" style="stroke-width: 0.5;stroke: rgb(255,255,255);stroke-opacity: 1.0;stroke-linejoin: bevel;stroke-dasharray: 2.0, 2.0;shape-rendering:crispEdges;" clip-path="url(#_4199632935390clip-2)"/><line x1="70" y1="320.02" x2="788" y2="320.02" style="stroke-width: 0.5;stroke: rgb(255,255,255);stroke-opacity: 1.0;stroke-linejoin: bevel;stroke-dasharray: 2.0, 2.0;shape-rendering:crispEdges;" clip-path="url(#_4199632935390clip-2)"/><line x1="70" y1="285.36" x2="788" y2="285.36" style="stroke-width: 0.5;stroke: rgb(255,255,255);stroke-opacity: 1.0;stroke-linejoin: bevel;stroke-dasharray: 2.0, 2.0;shape-rendering:crispEdges;" clip-path="url(#_4199632935390clip-2)"/><line x1="70" y1="250.7" x2="788" y2="250.7" style="stroke-width: 0.5;stroke: rgb(255,255,255);stroke-opacity: 1.0;stroke-linejoin: bevel;stroke-dasharray: 2.0, 2.0;shape-rendering:crispEdges;" clip-path="url(#_4199632935390clip-2)"/><line x1="70" y1="216.03" x2="788" y2="216.03" style="stroke-width: 0.5;stroke: rgb(255,255,255);stroke-opacity: 1.0;stroke-linejoin: bevel;stroke-dasharray: 2.0, 2.0;shape-rendering:crispEdges;" clip-path="url(#_4199632935390clip-2)"/><line x1="70" y1="181.37" x2="788" y2="181.37" style="stroke-width: 0.5;stroke: rgb(255,255,255);stroke-opacity: 1.0;stroke-linejoin: bevel;stroke-dasharray: 2.0, 2.0;shape-rendering:crispEdges;" clip-path="url(#_4199632935390clip-2)"/><line x1="70" y1="146.71" x2="788" y2="146.71" style="stroke-width: 0.5;stroke: rgb(255,255,255);stroke-opacity: 1.0;stroke-linejoin: bevel;stroke-dasharray: 2.0, 2.0;shape-rendering:crispEdges;" clip-path="url(#_4199632935390clip-2)"/><line x1="70" y1="112.05" x2="788" y2="112.05" style="stroke-width: 0.5;stroke: rgb(255,255,255);stroke-opacity: 1.0;stroke-linejoin: bevel;stroke-dasharray: 2.0, 2.0;shape-rendering:crispEdges;" clip-path="url(#_4199632935390clip-2)"/><line x1="70" y1="77.38" x2="788" y2="77.38" style="stroke-width: 0.5;stroke: rgb(255,255,255);stroke-opacity: 1.0;stroke-linejoin: bevel;stroke-dasharray: 2.0, 2.0;shape-rendering:crispEdges;" clip-path="url(#_4199632935390clip-2)"/><line x1="70" y1="42.72" x2="788" y2="42.72" style="stroke-width: 0.5;stroke: rgb(255,255,255);stroke-opacity: 1.0;stroke-linejoin: bevel;stroke-dasharray: 2.0, 2.0;shape-rendering:crispEdges;" clip-path="url(#_4199632935390clip-2)"/><line x1="83.69" y1="524.08" x2="97.38" y2="523.23" style="stroke-width: 1.0;stroke: rgb(255,85,85);stroke-opacity: 1.0;stroke-linecap: square;stroke-linejoin: bevel;shape-rendering:geometricPrecision;" clip-path="url(#_4199632935390clip-2)"/><line x1="97.38" y1="523.23" x2="111.07" y2="522.47" style="stroke-width: 1.0;stroke: rgb(255,85,85);stroke-opacity: 1.0;stroke-linecap: square;stroke-linejoin: bevel;shape-rendering:geometricPrecision;" clip-path="url(#_4199632935390clip-2)"/><line x1="111.07" y1="522.47" x2="124.76" y2="521.78" style="stroke-width: 1.0;stroke: rgb(255,85,85);stroke-opacity: 1.0;stroke-linecap: square;stroke-linejoin: bevel;shape-rendering:geometricPrecision;" clip-path="url(#_4199632935390clip-2)"/><line x1="124.76" y1="521.78" x2="138.45" y2="521.16" style="stroke-width: 1.0;stroke: rgb(255,85,85);stroke-opacity: 1.0;stroke-linecap: square;stroke-linejoin: bevel;shape-rendering:geometricPrecision;" clip-path="url(#_4199632935390clip-2)"/><line x1="138.45" y1="521.16" x2="152.14" y2="520.6" style="stroke-width: 1.0;stroke: rgb(255,85,85);stroke-opacity: 1.0;stroke-linecap: square;stroke-linejoin: bevel;shape-rendering:geometricPrecision;" clip-path="url(#_4199632935390clip-2)"/><line x1="152.14" y1="520.6" x2="165.82" y2="520.09" style="stroke-width: 1.0;stroke: rgb(255,85,85);stroke-opacity: 1.0;stroke-linecap: square;stroke-linejoin: bevel;shape-rendering:geometricPrecision;" clip-path="url(#_4199632935390clip-2)"/><line x1="165.82" y1="520.09" x2="179.51" y2="519.63" style="stroke-width: 1.0;stroke: rgb(255,85,85);stroke-opacity: 1.0;stroke-linecap: square;stroke-linejoin: bevel;shape-rendering:geometricPrecision;" clip-path="url(#_4199632935390clip-2)"/><line x1="179.51" y1="519.63" x2="193.2" y2="519.22" style="stroke-width: 1.0;stroke: rgb(255,85,85);stroke-opacity: 1.0;stroke-linecap: square;stroke-linejoin: bevel;shape-rendering:geometricPrecision;" clip-path="url(#_4199632935390clip-2)"/><line x1="193.2" y1="519.22" x2="206.89" y2="518.85" style="stroke-width: 1.0;stroke: rgb(255,85,85);stroke-opacity: 1.0;stroke-linecap: square;stroke-linejoin: bevel;shape-rendering:geometricPrecision;" clip-path="url(#_4199632935390clip-2)"/><line x1="206.89" y1="518.85" x2="220.58" y2="518.51" style="stroke-width: 1.0;stroke: rgb(255,85,85);stroke-opacity: 1.0;stroke-linecap: square;stroke-linejoin: bevel;shape-rendering:geometricPrecision;" clip-path="url(#_4199632935390clip-2)"/><line x1="220.58" y1="518.51" x2="234.27" y2="518.21" style="stroke-width: 1.0;stroke: rgb(255,85,85);stroke-opacity: 1.0;stroke-linecap: square;stroke-linejoin: bevel;shape-rendering:geometricPrecision;" clip-path="url(#_4199632935390clip-2)"/><line x1="234.27" y1="518.21" x2="247.96" y2="517.93" style="stroke-width: 1.0;stroke: rgb(255,85,85);stroke-opacity: 1.0;stroke-linecap: square;stroke-linejoin: bevel;shape-rendering:geometricPrecision;" clip-path="url(#_4199632935390clip-2)"/><line x1="247.96" y1="517.93" x2="261.65" y2="517.69" style="stroke-width: 1.0;stroke: rgb(255,85,85);stroke-opacity: 1.0;stroke-linecap: square;stroke-linejoin: bevel;shape-rendering:geometricPrecision;" clip-path="url(#_4199632935390clip-2)"/><line x1="261.65" y1="517.69" x2="275.34" y2="517.46" style="stroke-width: 1.0;stroke: rgb(255,85,85);stroke-opacity: 1.0;stroke-linecap: square;stroke-linejoin: bevel;shape-rendering:geometricPrecision;" clip-path="url(#_4199632935390clip-2)"/><line x1="275.34" y1="517.46" x2="289.03" y2="517.26" style="stroke-width: 1.0;stroke: rgb(255,85,85);stroke-opacity: 1.0;stroke-linecap: square;stroke-linejoin: bevel;shape-rendering:geometricPrecision;" clip-path="url(#_4199632935390clip-2)"/><line x1="289.03" y1="517.26" x2="302.72" y2="517.08" style="stroke-width: 1.0;stroke: rgb(255,85,85);stroke-opacity: 1.0;stroke-linecap: square;stroke-linejoin: bevel;shape-rendering:geometricPrecision;" clip-path="url(#_4199632935390clip-2)"/><line x1="302.72" y1="517.08" x2="316.41" y2="516.92" style="stroke-width: 1.0;stroke: rgb(255,85,85);stroke-opacity: 1.0;stroke-linecap: square;stroke-linejoin: bevel;shape-rendering:geometricPrecision;" clip-path="url(#_4199632935390clip-2)"/><line x1="316.41" y1="516.92" x2="330.1" y2="516.77" style="stroke-width: 1.0;stroke: rgb(255,85,85);stroke-opacity: 1.0;stroke-linecap: square;stroke-linejoin: bevel;shape-rendering:geometricPrecision;" clip-path="url(#_4199632935390clip-2)"/><line x1="330.1" y1="516.77" x2="343.78" y2="57.52" style="stroke-width: 1.0;stroke: rgb(255,85,85);stroke-opacity: 1.0;stroke-linecap: square;stroke-linejoin: bevel;shape-rendering:geometricPrecision;" clip-path="url(#_4199632935390clip-2)"/><line x1="343.78" y1="57.52" x2="357.47" y2="102.17" style="stroke-width: 1.0;stroke: rgb(255,85,85);stroke-opacity: 1.0;stroke-linecap: square;stroke-linejoin: bevel;shape-rendering:geometricPrecision;" clip-path="url(#_4199632935390clip-2)"/><line x1="357.47" y1="102.17" x2="371.16" y2="142.46" style="stroke-width: 1.0;stroke: rgb(255,85,85);stroke-opacity: 1.0;stroke-linecap: square;stroke-linejoin: bevel;shape-rendering:geometricPrecision;" clip-path="url(#_4199632935390clip-2)"/><line x1="371.16" y1="142.46" x2="384.85" y2="178.82" style="stroke-width: 1.0;stroke: rgb(255,85,85);stroke-opacity: 1.0;stroke-linecap: square;stroke-linejoin: bevel;shape-rendering:geometricPrecision;" clip-path="url(#_4199632935390clip-2)"/><line x1="384.85" y1="178.82" x2="398.54" y2="211.64" style="stroke-width: 1.0;stroke: rgb(255,85,85);stroke-opacity: 1.0;stroke-linecap: square;stroke-linejoin: bevel;shape-rendering:geometricPrecision;" clip-path="url(#_4199632935390clip-2)"/><line x1="398.54" y1="211.64" x2="412.23" y2="241.25" style="stroke-width: 1.0;stroke: rgb(255,85,85);stroke-opacity: 1.0;stroke-linecap: square;stroke-linejoin: bevel;shape-rendering:geometricPrecision;" clip-path="url(#_4199632935390clip-2)"/><line x1="412.23" y1="241.25" x2="425.92" y2="267.98" style="stroke-width: 1.0;stroke: rgb(255,85,85);stroke-opacity: 1.0;stroke-linecap: square;stroke-linejoin: bevel;shape-rendering:geometricPrecision;" clip-path="url(#_4199632935390clip-2)"/><line x1="425.92" y1="267.98" x2="439.61" y2="292.11" style="stroke-width: 1.0;stroke: rgb(255,85,85);stroke-opacity: 1.0;stroke-linecap: square;stroke-linejoin: bevel;shape-rendering:geometricPrecision;" clip-path="url(#_4199632935390clip-2)"/><line x1="439.61" y1="292.11" x2="453.3" y2="313.88" style="stroke-width: 1.0;stroke: rgb(255,85,85);stroke-opacity: 1.0;stroke-linecap: square;stroke-linejoin: bevel;shape-rendering:geometricPrecision;" clip-path="url(#_4199632935390clip-2)"/><line x1="453.3" y1="313.88" x2="466.99" y2="333.53" style="stroke-width: 1.0;stroke: rgb(255,85,85);stroke-opacity: 1.0;stroke-linecap: square;stroke-linejoin: bevel;shape-rendering:geometricPrecision;" clip-path="url(#_4199632935390clip-2)"/><line x1="466.99" y1="333.53" x2="480.68" y2="351.26" style="stroke-width: 1.0;stroke: rgb(255,85,85);stroke-opacity: 1.0;stroke-linecap: square;stroke-linejoin: bevel;shape-rendering:geometricPrecision;" clip-path="url(#_4199632935390clip-2)"/><line x1="480.68" y1="351.26" x2="494.37" y2="367.26" style="stroke-width: 1.0;stroke: rgb(255,85,85);stroke-opacity: 1.0;stroke-linecap: square;stroke-linejoin: bevel;shape-rendering:geometricPrecision;" clip-path="url(#_4199632935390clip-2)"/><line x1="494.37" y1="367.26" x2="508.06" y2="381.71" style="stroke-width: 1.0;stroke: rgb(255,85,85);stroke-opacity: 1.0;stroke-linecap: square;stroke-linejoin: bevel;shape-rendering:geometricPrecision;" clip-path="url(#_4199632935390clip-2)"/><line x1="508.06" y1="381.71" x2="521.74" y2="394.74" style="stroke-width: 1.0;stroke: rgb(255,85,85);stroke-opacity: 1.0;stroke-linecap: square;stroke-linejoin: bevel;shape-rendering:geometricPrecision;" clip-path="url(#_4199632935390clip-2)"/><line x1="521.74" y1="394.74" x2="535.43" y2="406.51" style="stroke-width: 1.0;stroke: rgb(255,85,85);stroke-opacity: 1.0;stroke-linecap: square;stroke-linejoin: bevel;shape-rendering:geometricPrecision;" clip-path="url(#_4199632935390clip-2)"/><line x1="535.43" y1="406.51" x2="549.12" y2="417.12" style="stroke-width: 1.0;stroke: rgb(255,85,85);stroke-opacity: 1.0;stroke-linecap: square;stroke-linejoin: bevel;shape-rendering:geometricPrecision;" clip-path="url(#_4199632935390clip-2)"/><line x1="549.12" y1="417.12" x2="562.81" y2="426.71" style="stroke-width: 1.0;stroke: rgb(255,85,85);stroke-opacity: 1.0;stroke-linecap: square;stroke-linejoin: bevel;shape-rendering:geometricPrecision;" clip-path="url(#_4199632935390clip-2)"/><line x1="562.81" y1="426.71" x2="576.5" y2="435.35" style="stroke-width: 1.0;stroke: rgb(255,85,85);stroke-opacity: 1.0;stroke-linecap: square;stroke-linejoin: bevel;shape-rendering:geometricPrecision;" clip-path="url(#_4199632935390clip-2)"/><line x1="576.5" y1="435.35" x2="590.19" y2="443.16" style="stroke-width: 1.0;stroke: rgb(255,85,85);stroke-opacity: 1.0;stroke-linecap: square;stroke-linejoin: bevel;shape-rendering:geometricPrecision;" clip-path="url(#_4199632935390clip-2)"/><line x1="590.19" y1="443.16" x2="603.88" y2="450.2" style="stroke-width: 1.0;stroke: rgb(255,85,85);stroke-opacity: 1.0;stroke-linecap: square;stroke-linejoin: bevel;shape-rendering:geometricPrecision;" clip-path="url(#_4199632935390clip-2)"/><line x1="603.88" y1="450.2" x2="617.57" y2="456.56" style="stroke-width: 1.0;stroke: rgb(255,85,85);stroke-opacity: 1.0;stroke-linecap: square;stroke-linejoin: bevel;shape-rendering:geometricPrecision;" clip-path="url(#_4199632935390clip-2)"/><line x1="617.57" y1="456.56" x2="631.26" y2="462.3" style="stroke-width: 1.0;stroke: rgb(255,85,85);stroke-opacity: 1.0;stroke-linecap: square;stroke-linejoin: bevel;shape-rendering:geometricPrecision;" clip-path="url(#_4199632935390clip-2)"/><line x1="631.26" y1="462.3" x2="644.95" y2="467.47" style="stroke-width: 1.0;stroke: rgb(255,85,85);stroke-opacity: 1.0;stroke-linecap: square;stroke-linejoin: bevel;shape-rendering:geometricPrecision;" clip-path="url(#_4199632935390clip-2)"/><line x1="644.95" y1="467.47" x2="658.64" y2="472.15" style="stroke-width: 1.0;stroke: rgb(255,85,85);stroke-opacity: 1.0;stroke-linecap: square;stroke-linejoin: bevel;shape-rendering:geometricPrecision;" clip-path="url(#_4199632935390clip-2)"/><line x1="658.64" y1="472.15" x2="672.33" y2="476.36" style="stroke-width: 1.0;stroke: rgb(255,85,85);stroke-opacity: 1.0;stroke-linecap: square;stroke-linejoin: bevel;shape-rendering:geometricPrecision;" clip-path="url(#_4199632935390clip-2)"/><line x1="672.33" y1="476.36" x2="686.02" y2="480.17" style="stroke-width: 1.0;stroke: rgb(255,85,85);stroke-opacity: 1.0;stroke-linecap: square;stroke-linejoin: bevel;shape-rendering:geometricPrecision;" clip-path="url(#_4199632935390clip-2)"/><line x1="686.02" y1="480.17" x2="699.7" y2="483.61" style="stroke-width: 1.0;stroke: rgb(255,85,85);stroke-opacity: 1.0;stroke-linecap: square;stroke-linejoin: bevel;shape-rendering:geometricPrecision;" clip-path="url(#_4199632935390clip-2)"/><line x1="699.7" y1="483.61" x2="713.39" y2="486.71" style="stroke-width: 1.0;stroke: rgb(255,85,85);stroke-opacity: 1.0;stroke-linecap: square;stroke-linejoin: bevel;shape-rendering:geometricPrecision;" clip-path="url(#_4199632935390clip-2)"/><line x1="713.39" y1="486.71" x2="727.08" y2="489.5" style="stroke-width: 1.0;stroke: rgb(255,85,85);stroke-opacity: 1.0;stroke-linecap: square;stroke-linejoin: bevel;shape-rendering:geometricPrecision;" clip-path="url(#_4199632935390clip-2)"/><line x1="727.08" y1="489.5" x2="740.77" y2="492.03" style="stroke-width: 1.0;stroke: rgb(255,85,85);stroke-opacity: 1.0;stroke-linecap: square;stroke-linejoin: bevel;shape-rendering:geometricPrecision;" clip-path="url(#_4199632935390clip-2)"/><line x1="740.77" y1="492.03" x2="754.46" y2="494.31" style="stroke-width: 1.0;stroke: rgb(255,85,85);stroke-opacity: 1.0;stroke-linecap: square;stroke-linejoin: bevel;shape-rendering:geometricPrecision;" clip-path="url(#_4199632935390clip-2)"/><rect x="70" y="34" width="718" height="494" style="stroke-width: 0.5;stroke: rgb(0,0,0);stroke-opacity: 1.0;stroke-linecap: round;stroke-linejoin: round;shape-rendering:crispEdges;; fill: none" clip-path="url(#_4199632935390clip-0)"/></svg>
