<!DOCTYPE svg PUBLIC "-//W3C//DTD SVG 1.1//EN" "http://www.w3.org/Graphics/SVG/1.1/DTD/svg11.dtd">
<svg xmlns="http://www.w3.org/2000/svg" xmlns:xlink="http://www.w3.org/1999/xlink" xmlns:jfreesvg="http://www.jfree.org/jfreesvg/svg" width="800" height="600" text-rendering="auto" shape-rendering="auto">
<defs><clipPath id="_22424877503419clip-0"><path d="M 0 0 L 800 0 L 800 600 L 0 600 L 0 0 Z "/></clipPath>
<clipPath id="_22424877503419clip-1"><path d="M 300.5 261.5 L 300.5 1061.5 L -299.5 1061.5 L -299.5 261.5 L 300.5 261.5 Z "/></clipPath>
<clipPath id="_22424877503419clip-2"><path d="M 62 34 L 62 528 L 788 528 L 788 34 Z "/></clipPath>
</defs>
<rect x="0" y="0" width="800" height="600" style="fill: rgb(255,255,255); fill-opacity: 1.0" clip-path="url(#_22424877503419clip-0)"/><g ><text x="198.5" y="19.56" style="fill: rgb(0,0,0); fill-opacity: 1.0; font-family: sans-serif; font-size: 20px; font-weight: bold;" clip-path="url(#_22424877503419clip-0)">Zachowanie inflacji w trakcie 50 tur</text></g><rect x="354" y="578" width="92" height="21" style="fill: rgb(255,255,255); fill-opacity: 1.0" clip-path="url(#_22424877503419clip-0)"/><g style="stroke-width: 1.0;stroke: rgb(255,85,85);stroke-opacity: 1.0;stroke-linecap: square;stroke-linejoin: bevel;shape-rendering:geometricPrecision;; fill: none" clip-path="url(#_22424877503419clip-0)"><path d="M 357 588.5 L 371 588.5"/></g><g ><text x="375" y="592.14" style="fill: rgb(64,64,64); fill-opacity: 1.0; font-family: sans-serif; font-size: 12px;" clip-path="url(#_22424877503419clip-0)">Inflacja (%)</text></g><rect x="62" y="34" width="726" height="494" style="fill: rgb(192,192,192); fill-opacity: 1.0" clip-path="url(#_22424877503419clip-0)"/><line x1="62" y1="532" x2="788" y2="532" style="stroke-width: 0.5;stroke: rgb(128,128,128);stroke-opacity: 1.0;stroke-linecap: square;shape-rendering:crispEdges;" clip-path="url(#_22424877503419clip-0)"/><g ><text x="58" y="548.17" style="fill: rgb(64,64,64); fill-opacity: 1.0; font-family: sans-serif; font-size: 12px;" clip-path="url(#_22424877503419clip-0)">0</text></g><line x1="62" y1="534" x2="62" y2="532" style="stroke-width: 0.5;stroke: rgb(128,128,128);stroke-opacity: 1.0;stroke-linecap: square;shape-rendering:crispEdges;" clip-path="url(#_22424877503419clip-0)"/><g ><text x="85.68" y="548.17" style="fill: rgb(64,64,64); fill-opacity: 1.0; font-family: sans-serif; font-size: 12px;" clip-path="url(#_22424877503419clip-0)">2</text></g><line x1="89.68" y1="534" x2="89.68" y2="532" style="stroke-width: 0.5;stroke: rgb(128,128,128);stroke-opacity: 1.0;stroke-linecap: square;shape-rendering:crispEdges;" clip-path="url(#_22424877503419clip-0)"/><g ><text x="113.37" y="548.17" style="fill: rgb(64,64,64); fill-opacity: 1.0; font-family: sans-serif; font-size: 12px;" clip-path="url(#_22424877503419clip-0)">4</text></g><line x1="117.37" y1="534" x2="117.37" y2="532" style="stroke-width: 0.5;stroke: rgb(128,128,128);stroke-opacity: 1.0;stroke-linecap: square;shape-rendering:crispEdges;" clip-path="url(#_22424877503419clip-0)"/><g ><text x="141.05" y="548.17" style="fill: rgb(64,64,64); fill-opacity: 1.0; font-family: sans-serif; font-size: 12px;" clip-path="url(#_22424877503419clip-0)">6</text></g><line x1="145.05" y1="534" x2="145.05" y2="532" style="stroke-width: 0.5;stroke: rgb(128,128,128);stroke-opacity: 1.0;stroke-linecap: square;shape-rendering:crispEdges;" clip-path="url(#_22424877503419clip-0)"/><g ><text x="168.73" y="548.17" style="fill: rgb(64,64,64); fill-opacity: 1.0; font-family: sans-serif; font-size: 12px;" clip-path="url(#_22424877503419clip-0)">8</text></g><line x1="172.73" y1="534" x2="172.73" y2="532" style="stroke-width: 0.5;stroke: rgb(128,128,128);stroke-opacity: 1.0;stroke-linecap: square;shape-rendering:crispEdges;" clip-path="url(#_22424877503419clip-0)"/><g ><text x="192.92" y="548.17" style="fill: rgb(64,64,64); fill-opacity: 1.0; font-family: sans-serif; font-size: 12px;" clip-path="url(#_22424877503419clip-0)">10</text></g><line x1="200.42" y1="534" x2="200.42" y2="532" style="stroke-width: 0.5;stroke: rgb(128,128,128);stroke-opacity: 1.0;stroke-linecap: square;shape-rendering:crispEdges;" clip-path="url(#_22424877503419clip-0)"/><g ><text x="220.6" y="548.17" style="fill: rgb(64,64,64); fill-opacity: 1.0; font-family: sans-serif; font-size: 12px;" clip-path="url(#_22424877503419clip-0)">12</text></g><line x1="228.1" y1="534" x2="228.1" y2="532" style="stroke-width: 0.5;stroke: rgb(128,128,128);stroke-opacity: 1.0;stroke-linecap: square;shape-rendering:crispEdges;" clip-path="url(#_22424877503419clip-0)"/><g ><text x="248.28" y="548.17" style="fill: rgb(64,64,64); fill-opacity: 1.0; font-family: sans-serif; font-size: 12px;" clip-path="url(#_22424877503419clip-0)">14</text></g><line x1="255.78" y1="534" x2="255.78" y2="532" style="stroke-width: 0.5;stroke: rgb(128,128,128);stroke-opacity: 1.0;stroke-linecap: square;shape-rendering:crispEdges;" clip-path="url(#_22424877503419clip-0)"/><g ><text x="275.97" y="548.17" style="fill: rgb(64,64,64); fill-opacity: 1.0; font-family: sans-serif; font-size: 12px;" clip-path="url(#_22424877503419clip-0)">16</text></g><line x1="283.47" y1="534" x2="283.47" y2="532" style="stroke-width: 0.5;stroke: rgb(128,128,128);stroke-opacity: 1.0;stroke-linecap: square;shape-rendering:crispEdges;" clip-path="url(#_22424877503419clip-0)"/><g ><text x="303.65" y="548.17" style="fill: rgb(64,64,64); fill-opacity: 1.0; font-family: sans-serif; font-size: 12px;" clip-path="url(#_22424877503419clip-0)">18</text></g><line x1="311.15" y1="534" x2="311.15" y2="532" style="stroke-width: 0.5;stroke: rgb(128,128,128);stroke-opacity: 1.0;stroke-linecap: square;shape-rendering:crispEdges;" clip-path="url(#_22424877503419clip-0)"/><g ><text x="331.34" y="548.17" style="fill: rgb(64,64,64); fill-opacity: 1.0; font-family: sans-serif; font-size: 12px;" clip-path="url(#_22424877503419clip-0)">20</text></g><line x1="338.84" y1="534" x2="338.84" y2="532" style="stroke-width: 0.5;stroke: rgb(128,128,128);stroke-opacity: 1.0;stroke-linecap: square;shape-rendering:crispEdges;" clip-path="url(#_22424877503419clip-0)"/><g ><text x="359.02" y="548.17" style="fill: rgb(64,64,64); fill-opacity: 1.0; font-family: sans-serif; font-size: 12px;" clip-path="url(#_22424877503419clip-0)">22</text></g><line x1="366.52" y1="534" x2="366.52" y2="532" style="stroke-width: 0.5;stroke: rgb(128,128,128);stroke-opacity: 1.0;stroke-linecap: square;shape-rendering:crispEdges;" clip-path="url(#_22424877503419clip-0)"/><g ><text x="386.7" y="548.17" style="fill: rgb(64,64,64); fill-opacity: 1.0; font-family: sans-serif; font-size: 12px;" clip-path="url(#_22424877503419clip-0)">24</text></g><line x1="394.2" y1="534" x2="394.2" y2="532" style="stroke-width: 0.5;stroke: rgb(128,128,128);stroke-opacity: 1.0;stroke-linecap: square;shape-rendering:crispEdges;" clip-path="url(#_22424877503419clip-0)"/><g ><text x="414.39" y="548.17" style="fill: rgb(64,64,64); fill-opacity: 1.0; font-family: sans-serif; font-size: 12px;" clip-path="url(#_22424877503419clip-0)">26</text></g><line x1="421.89" y1="534" x2="421.89" y2="532" style="stroke-width: 0.5;stroke: rgb(128,128,128);stroke-opacity: 1.0;stroke-linecap: square;shape-rendering:crispEdges;" clip-path="url(#_22424877503419clip-0)"/><g ><text x="442.07" y="548.17" style="fill: rgb(64,64,64); fill-opacity: 1.0; font-family: sans-serif; font-size: 12px;" clip-path="url(#_22424877503419clip-0)">28</text></g><line x1="449.57" y1="534" x2="449.57" y2="532" style="stroke-width: 0.5;stroke: rgb(128,128,128);stroke-opacity: 1.0;stroke-linecap: square;shape-rendering:crispEdges;" clip-path="url(#_22424877503419clip-0)"/><g ><text x="469.75" y="548.17" style="fill: rgb(64,64,64); fill-opacity: 1.0; font-family: sans-serif; font-size: 12px;" clip-path="url(#_22424877503419clip-0)">30</text></g><line x1="477.25" y1="534" x2="477.25" y2="532" style="stroke-width: 0.5;stroke: rgb(128,128,128);stroke-opacity: 1.0;stroke-linecap: square;shape-rendering:crispEdges;" clip-path="url(#_22424877503419clip-0)"/><g ><text x="497.44" y="548.17" style="fill: rgb(64,64,64); fill-opacity: 1.0; font-family: sans-serif; font-size: 12px;" clip-path="url(#_22424877503419clip-0)">32</text></g><line x1="504.94" y1="534" x2="504.94" y2="532" style="stroke-width: 0.5;stroke: rgb(128,128,128);stroke-opacity: 1.0;stroke-linecap: square;shape-rendering:crispEdges;" clip-path="url(#_22424877503419clip-0)"/><g ><text x="525.12" y="548.17" style="fill: rgb(64,64,64); fill-opacity: 1.0; font-family: sans-serif; font-size: 12px;" clip-path="url(#_22424877503419clip-0)">34</text></g><line x1="532.62" y1="534" x2="532.62" y2="532" style="stroke-width: 0.5;stroke: rgb(128,128,128);stroke-opacity: 1.0;stroke-linecap: square;shape-rendering:crispEdges;" clip-path="url(#_22424877503419clip-0)"/><g ><text x="552.8" y="548.17" style="fill: rgb(64,64,64); fill-opacity: 1.0; font-family: sans-serif; font-size: 12px;" clip-path="url(#_22424877503419clip-0)">36</text></g><line x1="560.3" y1="534" x2="560.3" y2="532" style="stroke-width: 0.5;stroke: rgb(128,128,128);stroke-opacity: 1.0;stroke-linecap: square;shape-rendering:crispEdges;" clip-path="url(#_22424877503419clip-0)"/><g ><text x="580.49" y="548.17" style="fill: rgb(64,64,64); fill-opacity: 1.0; font-family: sans-serif; font-size: 12px;" clip-path="url(#_22424877503419clip-0)">38</text></g><line x1="587.99" y1="534" x2="587.99" y2="532" style="stroke-width: 0.5;stroke: rgb(128,128,128);stroke-opacity: 1.0;stroke-linecap: square;shape-rendering:crispEdges;" clip-path="url(#_22424877503419clip-0)"/><g ><text x="608.17" y="548.17" style="fill: rgb(64,64,64); fill-opacity: 1.0; font-family: sans-serif; font-size: 12px;" clip-path="url(#_22424877503419clip-0)">40</text></g><line x1="615.67" y1="534" x2="615.67" y2="532" style="stroke-width: 0.5;stroke: rgb(128,128,128);stroke-opacity: 1.0;stroke-linecap: square;shape-rendering:crispEdges;" clip-path="url(#_22424877503419clip-0)"/><g ><text x="635.85" y="548.17" style="fill: rgb(64,64,64); fill-opacity: 1.0; font-family: sans-serif; font-size: 12px;" clip-path="url(#_22424877503419clip-0)">42</text></g><line x1="643.35" y1="534" x2="643.35" y2="532" style="stroke-width: 0.5;stroke: rgb(128,128,128);stroke-opacity: 1.0;stroke-linecap: square;shape-rendering:crispEdges;" clip-path="url(#_22424877503419clip-0)"/><g ><text x="663.54" y="548.17" style="fill: rgb(64,64,64); fill-opacity: 1.0; font-family: sans-serif; font-size: 12px;" clip-path="url(#_22424877503419clip-0)">44</text></g><line x1="671.04" y1="534" x2="671.04" y2="532" style="stroke-width: 0.5;stroke: rgb(128,128,128);stroke-opacity: 1.0;stroke-linecap: square;shape-rendering:crispEdges;" clip-path="url(#_22424877503419clip-0)"/><g ><text x="691.22" y="548.17" style="fill: rgb(64,64,64); fill-opacity: 1.0; font-family: sans-serif; font-size: 12px;" clip-path="url(#_22424877503419clip-0)">46</text></g><line x1="698.72" y1="534" x2="698.72" y2="532" style="stroke-width: 0.5;stroke: rgb(128,128,128);stroke-opacity: 1.0;stroke-linecap: square;shape-rendering:crispEdges;" clip-path="url(#_22424877503419clip-0)"/><g ><text x="718.9" y="548.17" style="fill: rgb(64,64,64); fill-opacity: 1.0; font-family: sans-serif; font-size: 12px;" clip-path="url(#_22424877503419clip-0)">48</text></g><line x1="726.4" y1="534" x2="726.4" y2="532" style="stroke-width: 0.5;stroke: rgb(128,128,128);stroke-opacity: 1.0;stroke-linecap: square;shape-rendering:crispEdges;" clip-path="url(#_22424877503419clip-0)"/><g ><text x="746.59" y="548.17" style="fill: rgb(64,64,64); fill-opacity: 1.0; font-family: sans-serif; font-size: 12px;" clip-path="url(#_22424877503419clip-0)">50</text></g><line x1="754.09" y1="534" x2="754.09" y2="532" style="stroke-width: 0.5;stroke: rgb(128,128,128);stroke-opacity: 1.0;stroke-linecap: square;shape-rendering:crispEdges;" clip-path="url(#_22424877503419clip-0)"/><g ><text x="774.27" y="548.17" style="fill: rgb(64,64,64); fill-opacity: 1.0; font-family: sans-serif; font-size: 12px;" clip-path="url(#_22424877503419clip-0)">52</text></g><line x1="781.77" y1="534" x2="781.77" y2="532" style="stroke-width: 0.5;stroke: rgb(128,128,128);stroke-opacity: 1.0;stroke-linecap: square;shape-rendering:crispEdges;" clip-path="url(#_22424877503419clip-0)"/><g ><text x="407" y="566.67" style="fill: rgb(64,64,64); fill-opacity: 1.0; font-family: sans-serif; font-size: 14px; font-weight: bold;" clip-path="url(#_22424877503419clip-0)">Tura</text></g><line x1="58" y1="34" x2="58" y2="528" style="stroke-width: 0.5;stroke: rgb(128,128,128);stroke-opacity: 1.0;stroke-linecap: square;shape-rendering:crispEdges;" clip-path="url(#_22424877503419clip-0)"/><g ><text x="33" y="532.67" style="fill: rgb(64,64,64); fill-opacity: 1.0; font-family: sans-serif; font-size: 12px;" clip-path="url(#_22424877503419clip-0)">0.0</text></g><line x1="56" y1="528" x2="58" y2="528" style="stroke-width: 0.5;stroke: rgb(128,128,128);stroke-opacity: 1.0;stroke-linecap: square;shape-rendering:crispEdges;" clip-path="url(#_22424877503419clip-0)"/><g ><text x="33" y="508.37" style="fill: rgb(64,64,64); fill-opacity: 1.0; font-family: sans-serif; font-size: 12px;" clip-path="url(#_22424877503419clip-0)">0.1</text></g><line x1="56" y1="503.7" x2="58" y2="503.7" style="stroke-width: 0.5;stroke: rgb(128,128,128);stroke-opacity: 1.0;stroke-linecap: square;shape-rendering:crispEdges;" clip-path="url(#_22424877503419clip-0)"/><g ><text x="33" y="484.08" style="fill: rgb(64,64,64); fill-opacity: 1.0; font-family: sans-serif; font-size: 12px;" clip-path="url(#_22424877503419clip-0)">0.2</text></g><line x1="56" y1="479.41" x2="58" y2="479.41" style="stroke-width: 0.5;stroke: rgb(128,128,128);stroke-opacity: 1.0;stroke-linecap: square;shape-rendering:crispEdges;" clip-path="url(#_22424877503419clip-0)"/><g ><text x="33" y="459.78" style="fill: rgb(64,64,64); fill-opacity: 1.0; font-family: sans-serif; font-size: 12px;" clip-path="url(#_22424877503419clip-0)">0.3</text></g><line x1="56" y1="455.11" x2="58" y2="455.11" style="stroke-width: 0.5;stroke: rgb(128,128,128);stroke-opacity: 1.0;stroke-linecap: square;shape-rendering:crispEdges;" clip-path="url(#_22424877503419clip-0)"/><g ><text x="33" y="435.49" style="fill: rgb(64,64,64); fill-opacity: 1.0; font-family: sans-serif; font-size: 12px;" clip-path="url(#_22424877503419clip-0)">0.4</text></g><line x1="56" y1="430.82" x2="58" y2="430.82" style="stroke-width: 0.5;stroke: rgb(128,128,128);stroke-opacity: 1.0;stroke-linecap: square;shape-rendering:crispEdges;" clip-path="url(#_22424877503419clip-0)"/><g ><text x="33" y="411.19" style="fill: rgb(64,64,64); fill-opacity: 1.0; font-family: sans-serif; font-size: 12px;" clip-path="url(#_22424877503419clip-0)">0.5</text></g><line x1="56" y1="406.52" x2="58" y2="406.52" style="stroke-width: 0.5;stroke: rgb(128,128,128);stroke-opacity: 1.0;stroke-linecap: square;shape-rendering:crispEdges;" clip-path="url(#_22424877503419clip-0)"/><g ><text x="33" y="386.9" style="fill: rgb(64,64,64); fill-opacity: 1.0; font-family: sans-serif; font-size: 12px;" clip-path="url(#_22424877503419clip-0)">0.6</text></g><line x1="56" y1="382.23" x2="58" y2="382.23" style="stroke-width: 0.5;stroke: rgb(128,128,128);stroke-opacity: 1.0;stroke-linecap: square;shape-rendering:crispEdges;" clip-path="url(#_22424877503419clip-0)"/><g ><text x="33" y="362.6" style="fill: rgb(64,64,64); fill-opacity: 1.0; font-family: sans-serif; font-size: 12px;" clip-path="url(#_22424877503419clip-0)">0.7</text></g><line x1="56" y1="357.93" x2="58" y2="357.93" style="stroke-width: 0.5;stroke: rgb(128,128,128);stroke-opacity: 1.0;stroke-linecap: square;shape-rendering:crispEdges;" clip-path="url(#_22424877503419clip-0)"/><g ><text x="33" y="338.3" style="fill: rgb(64,64,64); fill-opacity: 1.0; font-family: sans-serif; font-size: 12px;" clip-path="url(#_22424877503419clip-0)">0.8</text></g><line x1="56" y1="333.63" x2="58" y2="333.63" style="stroke-width: 0.5;stroke: rgb(128,128,128);stroke-opacity: 1.0;stroke-linecap: square;shape-rendering:crispEdges;" clip-path="url(#_22424877503419clip-0)"/><g ><text x="33" y="314.01" style="fill: rgb(64,64,64); fill-opacity: 1.0; font-family: sans-serif; font-size: 12px;" clip-path="url(#_22424877503419clip-0)">0.9</text></g><line x1="56" y1="309.34" x2="58" y2="309.34" style="stroke-width: 0.5;stroke: rgb(128,128,128);stroke-opacity: 1.0;stroke-linecap: square;shape-rendering:crispEdges;" clip-path="url(#_22424877503419clip-0)"/><g ><text x="33" y="289.71" style="fill: rgb(64,64,64); fill-opacity: 1.0; font-family: sans-serif; font-size: 12px;" clip-path="url(#_22424877503419clip-0)">1.0</text></g><line x1="56" y1="285.04" x2="58" y2="285.04" style="stroke-width: 0.5;stroke: rgb(128,128,128);stroke-opacity: 1.0;stroke-linecap: square;shape-rendering:crispEdges;" clip-path="url(#_22424877503419clip-0)"/><g ><text x="33" y="265.42" style="fill: rgb(64,64,64); fill-opacity: 1.0; font-family: sans-serif; font-size: 12px;" clip-path="url(#_22424877503419clip-0)">1.1</text></g><line x1="56" y1="260.75" x2="58" y2="260.75" style="stroke-width: 0.5;stroke: rgb(128,128,128);stroke-opacity: 1.0;stroke-linecap: square;shape-rendering:crispEdges;" clip-path="url(#_22424877503419clip-0)"/><g ><text x="33" y="241.12" style="fill: rgb(64,64,64); fill-opacity: 1.0; font-family: sans-serif; font-size: 12px;" clip-path="url(#_22424877503419clip-0)">1.2</text></g><line x1="56" y1="236.45" x2="58" y2="236.45" style="stroke-width: 0.5;stroke: rgb(128,128,128);stroke-opacity: 1.0;stroke-linecap: square;shape-rendering:crispEdges;" clip-path="url(#_22424877503419clip-0)"/><g ><text x="33" y="216.83" style="fill: rgb(64,64,64); fill-opacity: 1.0; font-family: sans-serif; font-size: 12px;" clip-path="url(#_22424877503419clip-0)">1.3</text></g><line x1="56" y1="212.16" x2="58" y2="212.16" style="stroke-width: 0.5;stroke: rgb(128,128,128);stroke-opacity: 1.0;stroke-linecap: square;shape-rendering:crispEdges;" clip-path="url(#_22424877503419clip-0)"/><g ><text x="33" y="192.53" style="fill: rgb(64,64,64); fill-opacity: 1.0; font-family: sans-serif; font-size: 12px;" clip-path="url(#_22424877503419clip-0)">1.4</text></g><line x1="56" y1="187.86" x2="58" y2="187.86" style="stroke-width: 0.5;stroke: rgb(128,128,128);stroke-opacity: 1.0;stroke-linecap: square;shape-rendering:crispEdges;" clip-path="url(#_22424877503419clip-0)"/><g ><text x="33" y="168.23" style="fill: rgb(64,64,64); fill-opacity: 1.0; font-family: sans-serif; font-size: 12px;" clip-path="url(#_22424877503419clip-0)">1.5</text></g><line x1="56" y1="163.56" x2="58" y2="163.56" style="stroke-width: 0.5;stroke: rgb(128,128,128);stroke-opacity: 1.0;stroke-linecap: square;shape-rendering:crispEdges;" clip-path="url(#_22424877503419clip-0)"/><g ><text x="33" y="143.94" style="fill: rgb(64,64,64); fill-opacity: 1.0; font-family: sans-serif; font-size: 12px;" clip-path="url(#_22424877503419clip-0)">1.6</text></g><line x1="56" y1="139.27" x2="58" y2="139.27" style="stroke-width: 0.5;stroke: rgb(128,128,128);stroke-opacity: 1.0;stroke-linecap: square;shape-rendering:crispEdges;" clip-path="url(#_22424877503419clip-0)"/><g ><text x="33" y="119.64" style="fill: rgb(64,64,64); fill-opacity: 1.0; font-family: sans-serif; font-size: 12px;" clip-path="url(#_22424877503419clip-0)">1.7</text></g><line x1="56" y1="114.97" x2="58" y2="114.97" style="stroke-width: 0.5;stroke: rgb(128,128,128);stroke-opacity: 1.0;stroke-linecap: square;shape-rendering:crispEdges;" clip-path="url(#_22424877503419clip-0)"/><g ><text x="33" y="95.35" style="fill: rgb(64,64,64); fill-opacity: 1.0; font-family: sans-serif; font-size: 12px;" clip-path="url(#_22424877503419clip-0)">1.8</text></g><line x1="56" y1="90.68" x2="58" y2="90.68" style="stroke-width: 0.5;stroke: rgb(128,128,128);stroke-opacity: 1.0;stroke-linecap: square;shape-rendering:crispEdges;" clip-path="url(#_22424877503419clip-0)"/><g ><text x="33" y="71.05" style="fill: rgb(64,64,64); fill-opacity: 1.0; font-family: sans-serif; font-size: 12px;" clip-path="url(#_22424877503419clip-0)">1.9</text></g><line x1="56" y1="66.38" x2="58" y2="66.38" style="stroke-width: 0.5;stroke: rgb(128,128,128);stroke-opacity: 1.0;stroke-linecap: square;shape-rendering:crispEdges;" clip-path="url(#_22424877503419clip-0)"/><g ><text x="33" y="46.76" style="fill: rgb(64,64,64); fill-opacity: 1.0; font-family: sans-serif; font-size: 12px;" clip-path="url(#_22424877503419clip-0)">2.0</text></g><line x1="56" y1="42.09" x2="58" y2="42.09" style="stroke-width: 0.5;stroke: rgb(128,128,128);stroke-opacity: 1.0;stroke-linecap: square;shape-rendering:crispEdges;" clip-path="url(#_22424877503419clip-0)"/><g style="fill: rgb(64,64,64); fill-opacity: 1.0; stroke: none" transform="matrix(0,-1,1,0,-261.5,300.5)" clip-path="url(#_22424877503419clip-1)"><path d="M -24.22 276 L -21.58 276 L -21.58 286.2 L -24.22 286.2 L -24.22 276 Z  M -11.42 281.54 L -11.42 286.2 L -13.88 286.2 L -13.88 285.43 L -13.88 282.64 Q -13.88 281.64 -13.93 281.26 Q -13.96 280.89 -14.07 280.71 Q -14.21 280.46 -14.46 280.34 Q -14.71 280.2 -15.03 280.2 Q -15.79 280.2 -16.23 280.79 Q -16.67 281.39 -16.67 282.43 L -16.67 286.2 L -19.12 286.2 L -19.12 278.54 L -16.67 278.54 L -16.67 279.67 Q -16.12 279 -15.49 278.68 Q -14.87 278.35 -14.12 278.35 Q -12.79 278.35 -12.1 279.17 Q -11.42 279.98 -11.42 281.54 Z  M -4.11 275.56 L -4.11 277.17 L -5.46 277.17 Q -5.98 277.17 -6.18 277.35 Q -6.39 277.54 -6.39 278.01 L -6.39 278.54 L -4.31 278.54 L -4.31 280.29 L -6.39 280.29 L -6.39 286.2 L -8.84 286.2 L -8.84 280.29 L -10.06 280.29 L -10.06 278.54 L -8.84 278.54 L -8.84 278.01 Q -8.84 276.76 -8.15 276.17 Q -7.45 275.56 -5.98 275.56 L -4.11 275.56 Z  M -3.06 275.56 L -0.61 275.56 L -0.61 286.2 L -3.06 286.2 L -3.06 275.56 Z  M 5.17 282.75 Q 4.41 282.75 4.02 283.01 Q 3.63 283.28 3.63 283.78 Q 3.63 284.25 3.94 284.51 Q 4.25 284.78 4.82 284.78 Q 5.5 284.78 5.97 284.28 Q 6.44 283.78 6.44 283.03 L 6.44 282.75 L 5.17 282.75 Z  M 8.91 281.82 L 8.91 286.2 L 6.44 286.2 L 6.44 285.06 Q 5.96 285.76 5.33 286.09 Q 4.72 286.4 3.85 286.4 Q 2.64 286.4 1.91 285.71 Q 1.17 285.01 1.17 283.9 Q 1.17 282.56 2.1 281.93 Q 3.02 281.29 5 281.29 L 6.44 281.29 L 6.44 281.1 Q 6.44 280.53 5.99 280.26 Q 5.53 279.98 4.57 279.98 Q 3.77 279.98 3.1 280.14 Q 2.42 280.29 1.83 280.62 L 1.83 278.75 Q 2.63 278.56 3.41 278.46 Q 4.21 278.35 5 278.35 Q 7.08 278.35 7.99 279.18 Q 8.91 280 8.91 281.82 Z  M 17.37 278.78 L 17.37 280.78 Q 16.87 280.43 16.37 280.28 Q 15.87 280.1 15.33 280.1 Q 14.31 280.1 13.73 280.71 Q 13.17 281.31 13.17 282.37 Q 13.17 283.45 13.73 284.06 Q 14.31 284.65 15.33 284.65 Q 15.9 284.65 16.42 284.48 Q 16.93 284.31 17.37 283.96 L 17.37 285.98 Q 16.79 286.18 16.2 286.29 Q 15.62 286.4 15.03 286.4 Q 12.95 286.4 11.78 285.34 Q 10.62 284.28 10.62 282.37 Q 10.62 280.48 11.78 279.42 Q 12.95 278.35 15.03 278.35 Q 15.62 278.35 16.2 278.46 Q 16.79 278.57 17.37 278.78 Z  M 19.48 278.54 L 21.94 278.54 L 21.94 286.06 Q 21.94 287.6 21.19 288.4 Q 20.45 289.21 19.06 289.21 L 17.84 289.21 L 17.84 287.62 L 18.26 287.62 Q 18.97 287.62 19.22 287.29 Q 19.48 286.98 19.48 286.06 L 19.48 278.54 Z  M 19.48 275.56 L 21.94 275.56 L 21.94 277.56 L 19.48 277.56 L 19.48 275.56 Z  M 27.72 282.75 Q 26.95 282.75 26.56 283.01 Q 26.17 283.28 26.17 283.78 Q 26.17 284.25 26.49 284.51 Q 26.8 284.78 27.36 284.78 Q 28.05 284.78 28.52 284.28 Q 28.99 283.78 28.99 283.03 L 28.99 282.75 L 27.72 282.75 Z  M 31.45 281.82 L 31.45 286.2 L 28.99 286.2 L 28.99 285.06 Q 28.5 285.76 27.88 286.09 Q 27.27 286.4 26.39 286.4 Q 25.19 286.4 24.45 285.71 Q 23.72 285.01 23.72 283.9 Q 23.72 282.56 24.64 281.93 Q 25.56 281.29 27.55 281.29 L 28.99 281.29 L 28.99 281.1 Q 28.99 280.53 28.53 280.26 Q 28.08 279.98 27.11 279.98 Q 26.31 279.98 25.64 280.14 Q 24.97 280.29 24.38 280.62 L 24.38 278.75 Q 25.17 278.56 25.95 278.46 Q 26.75 278.35 27.55 278.35 Q 29.63 278.35 30.53 279.18 Q 31.45 280 31.45 281.82 Z  M 42.71 288.04 L 40.68 288.04 Q 39.63 286.35 39.13 284.84 Q 38.63 283.31 38.63 281.82 Q 38.63 280.32 39.13 278.79 Q 39.63 277.25 40.68 275.57 L 42.71 275.57 Q 41.84 277.2 41.4 278.75 Q 40.96 280.29 40.96 281.81 Q 40.96 283.31 41.38 284.87 Q 41.82 286.42 42.71 288.04 Z  M 54.67 281.98 Q 54.19 281.98 53.92 282.4 Q 53.66 282.82 53.66 283.6 Q 53.66 284.39 53.92 284.81 Q 54.19 285.23 54.67 285.23 Q 55.17 285.23 55.42 284.81 Q 55.69 284.39 55.69 283.6 Q 55.69 282.82 55.42 282.4 Q 55.16 281.98 54.67 281.98 Z  M 54.67 280.84 Q 55.96 280.84 56.67 281.57 Q 57.41 282.31 57.41 283.6 Q 57.41 284.9 56.67 285.65 Q 55.96 286.4 54.67 286.4 Q 53.41 286.4 52.67 285.65 Q 51.94 284.9 51.94 283.6 Q 51.94 282.32 52.67 281.59 Q 53.41 280.84 54.67 280.84 Z  M 48.41 286.4 L 46.89 286.4 L 53.28 275.81 L 54.8 275.81 L 48.41 286.4 Z  M 47 275.81 Q 48.28 275.81 49 276.56 Q 49.74 277.29 49.74 278.59 Q 49.74 279.87 49 280.62 Q 48.28 281.37 47 281.37 Q 45.74 281.37 45 280.62 Q 44.28 279.87 44.28 278.59 Q 44.28 277.29 45 276.56 Q 45.74 275.81 47 275.81 Z  M 47 276.95 Q 46.52 276.95 46.25 277.39 Q 45.99 277.81 45.99 278.59 Q 45.99 279.37 46.25 279.81 Q 46.52 280.23 47 280.23 Q 47.5 280.23 47.77 279.81 Q 48.03 279.37 48.03 278.59 Q 48.03 277.81 47.77 277.39 Q 47.5 276.95 47 276.95 Z  M 58.98 288.04 Q 59.86 286.42 60.29 284.87 Q 60.73 283.31 60.73 281.81 Q 60.73 280.29 60.29 278.75 Q 59.86 277.2 58.98 275.57 L 61.01 275.57 Q 62.04 277.25 62.54 278.79 Q 63.06 280.32 63.06 281.82 Q 63.06 283.31 62.56 284.84 Q 62.06 286.35 61.01 288.04 L 58.98 288.04 Z "/></g><line x1="62" y1="34" x2="62" y2="528" style="stroke-width: 0.5;stroke: rgb(255,255,255);stroke-opacity: 1.0;stroke-linejoin: bevel;stroke-dasharray: 2.0, 2.0;shape-rendering:crispEdges;" clip-path="url(#_22424877503419clip-2)"/><line x1="89.68" y1="34" x2="89.68" y2="528" style="stroke-width: 0.5;stroke: rgb(255,255,255);stroke-opacity: 1.0;stroke-linejoin: bevel;stroke-dasharray: 2.0, 2.0;shape-rendering:crispEdges;" clip-path="url(#_22424877503419clip-2)"/><line x1="117.37" y1="34" x2="117.37" y2="528" style="stroke-width: 0.5;stroke: rgb(255,255,255);stroke-opacity: 1.0;stroke-linejoin: bevel;stroke-dasharray: 2.0, 2.0;shape-rendering:crispEdges;" clip-path="url(#_22424877503419clip-2)"/><line x1="145.05" y1="34" x2="145.05" y2="528" style="stroke-width: 0.5;stroke: rgb(255,255,255);stroke-opacity: 1.0;stroke-linejoin: bevel;stroke-dasharray: 2.0, 2.0;shape-rendering:crispEdges;" clip-path="url(#_22424877503419clip-2)"/><line x1="172.73" y1="34" x2="172.73" y2="528" style="stroke-width: 0.5;stroke: rgb(255,255,255);stroke-opacity: 1.0;stroke-linejoin: bevel;stroke-dasharray: 2.0, 2.0;shape-rendering:crispEdges;" clip-path="url(#_22424877503419clip-2)"/><line x1="200.42" y1="34" x2="200.42" y2="528" style="stroke-width: 0.5;stroke: rgb(255,255,255);stroke-opacity: 1.0;stroke-linejoin: bevel;stroke-dasharray: 2.0, 2.0;shape-rendering:crispEdges;" clip-path="url(#_22424877503419clip-2)"/><line x1="228.1" y1="34" x2="228.1" y2="528" style="stroke-width: 0.5;stroke: rgb(255,255,255);stroke-opacity: 1.0;stroke-linejoin: bevel;stroke-dasharray: 2.0, 2.0;shape-rendering:crispEdges;" clip-path="url(#_22424877503419clip-2)"/><line x1="255.78" y1="34" x2="255.78" y2="528" style="stroke-width: 0.5;stroke: rgb(255,255,255);stroke-opacity: 1.0;stroke-linejoin: bevel;stroke-dasharray: 2.0, 2.0;shape-rendering:crispEdges;" clip-path="url(#_22424877503419clip-2)"/><line x1="283.47" y1="34" x2="283.47" y2="528" style="stroke-width: 0.5;stroke: rgb(255,255,255);stroke-opacity: 1.0;stroke-linejoin: bevel;stroke-dasharray: 2.0, 2.0;shape-rendering:crispEdges;" clip-path="url(#_22424877503419clip-2)"/><line x1="311.15" y1="34" x2="311.15" y2="528" style="stroke-width: 0.5;stroke: rgb(255,255,255);stroke-opacity: 1.0;stroke-linejoin: bevel;stroke-dasharray: 2.0, 2.0;shape-rendering:crispEdges;" clip-path="url(#_22424877503419clip-2)"/><line x1="338.84" y1="34" x2="338.84" y2="528" style="stroke-width: 0.5;stroke: rgb(255,255,255);stroke-opacity: 1.0;stroke-linejoin: bevel;stroke-dasharray: 2.0, 2.0;shape-rendering:crispEdges;" clip-path="url(#_22424877503419clip-2)"/><line x1="366.52" y1="34" x2="366.52" y2="528" style="stroke-width: 0.5;stroke: rgb(255,255,255);stroke-opacity: 1.0;stroke-linejoin: bevel;stroke-dasharray: 2.0, 2.0;shape-rendering:crispEdges;" clip-path="url(#_22424877503419clip-2)"/><line x1="394.2" y1="34" x2="394.2" y2="528" style="stroke-width: 0.5;stroke: rgb(255,255,255);stroke-opacity: 1.0;stroke-linejoin: bevel;stroke-dasharray: 2.0, 2.0;shape-rendering:crispEdges;" clip-path="url(#_22424877503419clip-2)"/><line x1="421.89" y1="34" x2="421.89" y2="528" style="stroke-width: 0.5;stroke: rgb(255,255,255);stroke-opacity: 1.0;stroke-linejoin: bevel;stroke-dasharray: 2.0, 2.0;shape-rendering:crispEdges;" clip-path="url(#_22424877503419clip-2)"/><line x1="449.57" y1="34" x2="449.57" y2="528" style="stroke-width: 0.5;stroke: rgb(255,255,255);stroke-opacity: 1.0;stroke-linejoin: bevel;stroke-dasharray: 2.0, 2.0;shape-rendering:crispEdges;" clip-path="url(#_22424877503419clip-2)"/><line x1="477.25" y1="34" x2="477.25" y2="528" style="stroke-width: 0.5;stroke: rgb(255,255,255);stroke-opacity: 1.0;stroke-linejoin: bevel;stroke-dasharray: 2.0, 2.0;shape-rendering:crispEdges;" clip-path="url(#_22424877503419clip-2)"/><line x1="504.94" y1="34" x2="504.94" y2="528" style="stroke-width: 0.5;stroke: rgb(255,255,255);stroke-opacity: 1.0;stroke-linejoin: bevel;stroke-dasharray: 2.0, 2.0;shape-rendering:crispEdges;" clip-path="url(#_22424877503419clip-2)"/><line x1="532.62" y1="34" x2="532.62" y2="528" style="stroke-width: 0.5;stroke: rgb(255,255,255);stroke-opacity: 1.0;stroke-linejoin: bevel;stroke-dasharray: 2.0, 2.0;shape-rendering:crispEdges;" clip-path="url(#_22424877503419clip-2)"/><line x1="560.3" y1="34" x2="560.3" y2="528" style="stroke-width: 0.5;stroke: rgb(255,255,255);stroke-opacity: 1.0;stroke-linejoin: bevel;stroke-dasharray: 2.0, 2.0;shape-rendering:crispEdges;" clip-path="url(#_22424877503419clip-2)"/><line x1="587.99" y1="34" x2="587.99" y2="528" style="stroke-width: 0.5;stroke: rgb(255,255,255);stroke-opacity: 1.0;stroke-linejoin: bevel;stroke-dasharray: 2.0, 2.0;shape-rendering:crispEdges;" clip-path="url(#_22424877503419clip-2)"/><line x1="615.67" y1="34" x2="615.67" y2="528" style="stroke-width: 0.5;stroke: rgb(255,255,255);stroke-opacity: 1.0;stroke-linejoin: bevel;stroke-dasharray: 2.0, 2.0;shape-rendering:crispEdges;" clip-path="url(#_22424877503419clip-2)"/><line x1="643.35" y1="34" x2="643.35" y2="528" style="stroke-width: 0.5;stroke: rgb(255,255,255);stroke-opacity: 1.0;stroke-linejoin: bevel;stroke-dasharray: 2.0, 2.0;shape-rendering:crispEdges;" clip-path="url(#_22424877503419clip-2)"/><line x1="671.04" y1="34" x2="671.04" y2="528" style="stroke-width: 0.5;stroke: rgb(255,255,255);stroke-opacity: 1.0;stroke-linejoin: bevel;stroke-dasharray: 2.0, 2.0;shape-rendering:crispEdges;" clip-path="url(#_22424877503419clip-2)"/><line x1="698.72" y1="34" x2="698.72" y2="528" style="stroke-width: 0.5;stroke: rgb(255,255,255);stroke-opacity: 1.0;stroke-linejoin: bevel;stroke-dasharray: 2.0, 2.0;shape-rendering:crispEdges;" clip-path="url(#_22424877503419clip-2)"/><line x1="726.4" y1="34" x2="726.4" y2="528" style="stroke-width: 0.5;stroke: rgb(255,255,255);stroke-opacity: 1.0;stroke-linejoin: bevel;stroke-dasharray: 2.0, 2.0;shape-rendering:crispEdges;" clip-path="url(#_22424877503419clip-2)"/><line x1="754.09" y1="34" x2="754.09" y2="528" style="stroke-width: 0.5;stroke: rgb(255,255,255);stroke-opacity: 1.0;stroke-linejoin: bevel;stroke-dasharray: 2.0, 2.0;shape-rendering:crispEdges;" clip-path="url(#_22424877503419clip-2)"/><line x1="781.77" y1="34" x2="781.77" y2="528" style="stroke-width: 0.5;stroke: rgb(255,255,255);stroke-opacity: 1.0;stroke-linejoin: bevel;stroke-dasharray: 2.0, 2.0;shape-rendering:crispEdges;" clip-path="url(#_22424877503419clip-2)"/><line x1="62" y1="528" x2="788" y2="528" style="stroke-width: 0.5;stroke: rgb(255,255,255);stroke-opacity: 1.0;stroke-linejoin: bevel;stroke-dasharray: 2.0, 2.0;shape-rendering:crispEdges;" clip-path="url(#_22424877503419clip-2)"/><line x1="62" y1="503.7" x2="788" y2="503.7" style="stroke-width: 0.5;stroke: rgb(255,255,255);stroke-opacity: 1.0;stroke-linejoin: bevel;stroke-dasharray: 2.0, 2.0;shape-rendering:crispEdges;" clip-path="url(#_22424877503419clip-2)"/><line x1="62" y1="479.41" x2="788" y2="479.41" style="stroke-width: 0.5;stroke: rgb(255,255,255);stroke-opacity: 1.0;stroke-linejoin: bevel;stroke-dasharray: 2.0, 2.0;shape-rendering:crispEdges;" clip-path="url(#_22424877503419clip-2)"/><line x1="62" y1="455.11" x2="788" y2="455.11" style="stroke-width: 0.5;stroke: rgb(255,255,255);stroke-opacity: 1.0;stroke-linejoin: bevel;stroke-dasharray: 2.0, 2.0;shape-rendering:crispEdges;" clip-path="url(#_22424877503419clip-2)"/><line x1="62" y1="430.82" x2="788" y2="430.82" style="stroke-width: 0.5;stroke: rgb(255,255,255);stroke-opacity: 1.0;stroke-linejoin: bevel;stroke-dasharray: 2.0, 2.0;shape-rendering:crispEdges;" clip-path="url(#_22424877503419clip-2)"/><line x1="62" y1="406.52" x2="788" y2="406.52" style="stroke-width: 0.5;stroke: rgb(255,255,255);stroke-opacity: 1.0;stroke-linejoin: bevel;stroke-dasharray: 2.0, 2.0;shape-rendering:crispEdges;" clip-path="url(#_22424877503419clip-2)"/><line x1="62" y1="382.23" x2="788" y2="382.23" style="stroke-width: 0.5;stroke: rgb(255,255,255);stroke-opacity: 1.0;stroke-linejoin: bevel;stroke-dasharray: 2.0, 2.0;shape-rendering:crispEdges;" clip-path="url(#_22424877503419clip-2)"/><line x1="62" y1="357.93" x2="788" y2="357.93" style="stroke-width: 0.5;stroke: rgb(255,255,255);stroke-opacity: 1.0;stroke-linejoin: bevel;stroke-dasharray: 2.0, 2.0;shape-rendering:crispEdges;" clip-path="url(#_22424877503419clip-2)"/><line x1="62" y1="333.63" x2="788" y2="333.63" style="stroke-width: 0.5;stroke: rgb(255,255,255);stroke-opacity: 1.0;stroke-linejoin: bevel;stroke-dasharray: 2.0, 2.0;shape-rendering:crispEdges;" clip-path="url(#_22424877503419clip-2)"/><line x1="62" y1="309.34" x2="788" y2="309.34" style="stroke-width: 0.5;stroke: rgb(255,255,255);stroke-opacity: 1.0;stroke-linejoin: bevel;stroke-dasharray: 2.0, 2.0;shape-rendering:crispEdges;" clip-path="url(#_22424877503419clip-2)"/><line x1="62" y1="285.04" x2="788" y2="285.04" style="stroke-width: 0.5;stroke: rgb(255,255,255);stroke-opacity: 1.0;stroke-linejoin: bevel;stroke-dasharray: 2.0, 2.0;shape-rendering:crispEdges;" clip-path="url(#_22424877503419clip-2)"/><line x1="62" y1="260.75" x2="788" y2="260.75" style="stroke-width: 0.5;stroke: rgb(255,255,255);stroke-opacity: 1.0;stroke-linejoin: bevel;stroke-dasharray: 2.0, 2.0;shape-rendering:crispEdges;" clip-path="url(#_22424877503419clip-2)"/><line x1="62" y1="236.45" x2="788" y2="236.45" style="stroke-width: 0.5;stroke: rgb(255,255,255);stroke-opacity: 1.0;stroke-linejoin: bevel;stroke-dasharray: 2.0, 2.0;shape-rendering:crispEdges;" clip-path="url(#_22424877503419clip-2)"/><line x1="62" y1="212.16" x2="788" y2="212.16" style="stroke-width: 0.5;stroke: rgb(255,255,255);stroke-opacity: 1.0;stroke-linejoin: bevel;stroke-dasharray: 2.0, 2.0;shape-rendering:crispEdges;" clip-path="url(#_22424877503419clip-2)"/><line x1="62" y1="187.86" x2="788" y2="187.86" style="stroke-width: 0.5;stroke: rgb(255,255,255);stroke-opacity: 1.0;stroke-linejoin: bevel;stroke-dasharray: 2.0, 2.0;shape-rendering:crispEdges;" clip-path="url(#_22424877503419clip-2)"/><line x1="62" y1="163.56" x2="788" y2="163.56" style="stroke-width: 0.5;stroke: rgb(255,255,255);stroke-opacity: 1.0;stroke-linejoin: bevel;stroke-dasharray: 2.0, 2.0;shape-rendering:crispEdges;" clip-path="url(#_22424877503419clip-2)"/><line x1="62" y1="139.27" x2="788" y2="139.27" style="stroke-width: 0.5;stroke: rgb(255,255,255);stroke-opacity: 1.0;stroke-linejoin: bevel;stroke-dasharray: 2.0, 2.0;shape-rendering:crispEdges;" clip-path="url(#_22424877503419clip-2)"/><line x1="62" y1="114.97" x2="788" y2="114.97" style="stroke-width: 0.5;stroke: rgb(255,255,255);stroke-opacity: 1.0;stroke-linejoin: bevel;stroke-dasharray: 2.0, 2.0;shape-rendering:crispEdges;" clip-path="url(#_22424877503419clip-2)"/><line x1="62" y1="90.68" x2="788" y2="90.68" style="stroke-width: 0.5;stroke: rgb(255,255,255);stroke-opacity: 1.0;stroke-linejoin: bevel;stroke-dasharray: 2.0, 2.0;shape-rendering:crispEdges;" clip-path="url(#_22424877503419clip-2)"/><line x1="62" y1="66.38" x2="788" y2="66.38" style="stroke-width: 0.5;stroke: rgb(255,255,255);stroke-opacity: 1.0;stroke-linejoin: bevel;stroke-dasharray: 2.0, 2.0;shape-rendering:crispEdges;" clip-path="url(#_22424877503419clip-2)"/><line x1="62" y1="42.09" x2="788" y2="42.09" style="stroke-width: 0.5;stroke: rgb(255,255,255);stroke-opacity: 1.0;stroke-linejoin: bevel;stroke-dasharray: 2.0, 2.0;shape-rendering:crispEdges;" clip-path="url(#_22424877503419clip-2)"/><line x1="75.84" y1="437.53" x2="89.68" y2="398.48" style="stroke-width: 1.0;stroke: rgb(255,85,85);stroke-opacity: 1.0;stroke-linecap: square;stroke-linejoin: bevel;shape-rendering:geometricPrecision;" clip-path="url(#_22424877503419clip-2)"/><line x1="89.68" y1="398.48" x2="103.53" y2="363.42" style="stroke-width: 1.0;stroke: rgb(255,85,85);stroke-opacity: 1.0;stroke-linecap: square;stroke-linejoin: bevel;shape-rendering:geometricPrecision;" clip-path="url(#_22424877503419clip-2)"/><line x1="103.53" y1="363.42" x2="117.37" y2="331.95" style="stroke-width: 1.0;stroke: rgb(255,85,85);stroke-opacity: 1.0;stroke-linecap: square;stroke-linejoin: bevel;shape-rendering:geometricPrecision;" clip-path="url(#_22424877503419clip-2)"/><line x1="117.37" y1="331.95" x2="131.21" y2="303.69" style="stroke-width: 1.0;stroke: rgb(255,85,85);stroke-opacity: 1.0;stroke-linecap: square;stroke-linejoin: bevel;shape-rendering:geometricPrecision;" clip-path="url(#_22424877503419clip-2)"/><line x1="131.21" y1="303.69" x2="145.05" y2="278.33" style="stroke-width: 1.0;stroke: rgb(255,85,85);stroke-opacity: 1.0;stroke-linecap: square;stroke-linejoin: bevel;shape-rendering:geometricPrecision;" clip-path="url(#_22424877503419clip-2)"/><line x1="145.05" y1="278.33" x2="158.89" y2="255.55" style="stroke-width: 1.0;stroke: rgb(255,85,85);stroke-opacity: 1.0;stroke-linecap: square;stroke-linejoin: bevel;shape-rendering:geometricPrecision;" clip-path="url(#_22424877503419clip-2)"/><line x1="158.89" y1="255.55" x2="172.73" y2="235.11" style="stroke-width: 1.0;stroke: rgb(255,85,85);stroke-opacity: 1.0;stroke-linecap: square;stroke-linejoin: bevel;shape-rendering:geometricPrecision;" clip-path="url(#_22424877503419clip-2)"/><line x1="172.73" y1="235.11" x2="186.58" y2="216.75" style="stroke-width: 1.0;stroke: rgb(255,85,85);stroke-opacity: 1.0;stroke-linecap: square;stroke-linejoin: bevel;shape-rendering:geometricPrecision;" clip-path="url(#_22424877503419clip-2)"/><line x1="186.58" y1="216.75" x2="200.42" y2="200.27" style="stroke-width: 1.0;stroke: rgb(255,85,85);stroke-opacity: 1.0;stroke-linecap: square;stroke-linejoin: bevel;shape-rendering:geometricPrecision;" clip-path="url(#_22424877503419clip-2)"/><line x1="200.42" y1="200.27" x2="214.26" y2="185.48" style="stroke-width: 1.0;stroke: rgb(255,85,85);stroke-opacity: 1.0;stroke-linecap: square;stroke-linejoin: bevel;shape-rendering:geometricPrecision;" clip-path="url(#_22424877503419clip-2)"/><line x1="214.26" y1="185.48" x2="228.1" y2="172.2" style="stroke-width: 1.0;stroke: rgb(255,85,85);stroke-opacity: 1.0;stroke-linecap: square;stroke-linejoin: bevel;shape-rendering:geometricPrecision;" clip-path="url(#_22424877503419clip-2)"/><line x1="228.1" y1="172.2" x2="241.94" y2="160.28" style="stroke-width: 1.0;stroke: rgb(255,85,85);stroke-opacity: 1.0;stroke-linecap: square;stroke-linejoin: bevel;shape-rendering:geometricPrecision;" clip-path="url(#_22424877503419clip-2)"/><line x1="241.94" y1="160.28" x2="255.78" y2="149.57" style="stroke-width: 1.0;stroke: rgb(255,85,85);stroke-opacity: 1.0;stroke-linecap: square;stroke-linejoin: bevel;shape-rendering:geometricPrecision;" clip-path="url(#_22424877503419clip-2)"/><line x1="255.78" y1="149.57" x2="269.63" y2="139.96" style="stroke-width: 1.0;stroke: rgb(255,85,85);stroke-opacity: 1.0;stroke-linecap: square;stroke-linejoin: bevel;shape-rendering:geometricPrecision;" clip-path="url(#_22424877503419clip-2)"/><line x1="269.63" y1="139.96" x2="283.47" y2="131.34" style="stroke-width: 1.0;stroke: rgb(255,85,85);stroke-opacity: 1.0;stroke-linecap: square;stroke-linejoin: bevel;shape-rendering:geometricPrecision;" clip-path="url(#_22424877503419clip-2)"/><line x1="283.47" y1="131.34" x2="297.31" y2="123.59" style="stroke-width: 1.0;stroke: rgb(255,85,85);stroke-opacity: 1.0;stroke-linecap: square;stroke-linejoin: bevel;shape-rendering:geometricPrecision;" clip-path="url(#_22424877503419clip-2)"/><line x1="297.31" y1="123.59" x2="311.15" y2="116.64" style="stroke-width: 1.0;stroke: rgb(255,85,85);stroke-opacity: 1.0;stroke-linecap: square;stroke-linejoin: bevel;shape-rendering:geometricPrecision;" clip-path="url(#_22424877503419clip-2)"/><line x1="311.15" y1="116.64" x2="324.99" y2="110.4" style="stroke-width: 1.0;stroke: rgb(255,85,85);stroke-opacity: 1.0;stroke-linecap: square;stroke-linejoin: bevel;shape-rendering:geometricPrecision;" clip-path="url(#_22424877503419clip-2)"/><line x1="324.99" y1="110.4" x2="338.84" y2="104.79" style="stroke-width: 1.0;stroke: rgb(255,85,85);stroke-opacity: 1.0;stroke-linecap: square;stroke-linejoin: bevel;shape-rendering:geometricPrecision;" clip-path="url(#_22424877503419clip-2)"/><line x1="338.84" y1="104.79" x2="352.68" y2="99.76" style="stroke-width: 1.0;stroke: rgb(255,85,85);stroke-opacity: 1.0;stroke-linecap: square;stroke-linejoin: bevel;shape-rendering:geometricPrecision;" clip-path="url(#_22424877503419clip-2)"/><line x1="352.68" y1="99.76" x2="366.52" y2="95.25" style="stroke-width: 1.0;stroke: rgb(255,85,85);stroke-opacity: 1.0;stroke-linecap: square;stroke-linejoin: bevel;shape-rendering:geometricPrecision;" clip-path="url(#_22424877503419clip-2)"/><line x1="366.52" y1="95.25" x2="380.36" y2="91.19" style="stroke-width: 1.0;stroke: rgb(255,85,85);stroke-opacity: 1.0;stroke-linecap: square;stroke-linejoin: bevel;shape-rendering:geometricPrecision;" clip-path="url(#_22424877503419clip-2)"/><line x1="380.36" y1="91.19" x2="394.2" y2="87.55" style="stroke-width: 1.0;stroke: rgb(255,85,85);stroke-opacity: 1.0;stroke-linecap: square;stroke-linejoin: bevel;shape-rendering:geometricPrecision;" clip-path="url(#_22424877503419clip-2)"/><line x1="394.2" y1="87.55" x2="408.04" y2="84.28" style="stroke-width: 1.0;stroke: rgb(255,85,85);stroke-opacity: 1.0;stroke-linecap: square;stroke-linejoin: bevel;shape-rendering:geometricPrecision;" clip-path="url(#_22424877503419clip-2)"/><line x1="408.04" y1="84.28" x2="421.89" y2="81.35" style="stroke-width: 1.0;stroke: rgb(255,85,85);stroke-opacity: 1.0;stroke-linecap: square;stroke-linejoin: bevel;shape-rendering:geometricPrecision;" clip-path="url(#_22424877503419clip-2)"/><line x1="421.89" y1="81.35" x2="435.73" y2="78.72" style="stroke-width: 1.0;stroke: rgb(255,85,85);stroke-opacity: 1.0;stroke-linecap: square;stroke-linejoin: bevel;shape-rendering:geometricPrecision;" clip-path="url(#_22424877503419clip-2)"/><line x1="435.73" y1="78.72" x2="449.57" y2="76.35" style="stroke-width: 1.0;stroke: rgb(255,85,85);stroke-opacity: 1.0;stroke-linecap: square;stroke-linejoin: bevel;shape-rendering:geometricPrecision;" clip-path="url(#_22424877503419clip-2)"/><line x1="449.57" y1="76.35" x2="463.41" y2="74.23" style="stroke-width: 1.0;stroke: rgb(255,85,85);stroke-opacity: 1.0;stroke-linecap: square;stroke-linejoin: bevel;shape-rendering:geometricPrecision;" clip-path="url(#_22424877503419clip-2)"/><line x1="463.41" y1="74.23" x2="477.25" y2="72.32" style="stroke-width: 1.0;stroke: rgb(255,85,85);stroke-opacity: 1.0;stroke-linecap: square;stroke-linejoin: bevel;shape-rendering:geometricPrecision;" clip-path="url(#_22424877503419clip-2)"/><line x1="477.25" y1="72.32" x2="491.09" y2="70.61" style="stroke-width: 1.0;stroke: rgb(255,85,85);stroke-opacity: 1.0;stroke-linecap: square;stroke-linejoin: bevel;shape-rendering:geometricPrecision;" clip-path="url(#_22424877503419clip-2)"/><line x1="491.09" y1="70.61" x2="504.94" y2="69.08" style="stroke-width: 1.0;stroke: rgb(255,85,85);stroke-opacity: 1.0;stroke-linecap: square;stroke-linejoin: bevel;shape-rendering:geometricPrecision;" clip-path="url(#_22424877503419clip-2)"/><line x1="504.94" y1="69.08" x2="518.78" y2="67.7" style="stroke-width: 1.0;stroke: rgb(255,85,85);stroke-opacity: 1.0;stroke-linecap: square;stroke-linejoin: bevel;shape-rendering:geometricPrecision;" clip-path="url(#_22424877503419clip-2)"/><line x1="518.78" y1="67.7" x2="532.62" y2="66.46" style="stroke-width: 1.0;stroke: rgb(255,85,85);stroke-opacity: 1.0;stroke-linecap: square;stroke-linejoin: bevel;shape-rendering:geometricPrecision;" clip-path="url(#_22424877503419clip-2)"/><line x1="532.62" y1="66.46" x2="546.46" y2="65.35" style="stroke-width: 1.0;stroke: rgb(255,85,85);stroke-opacity: 1.0;stroke-linecap: square;stroke-linejoin: bevel;shape-rendering:geometricPrecision;" clip-path="url(#_22424877503419clip-2)"/><line x1="546.46" y1="65.35" x2="560.3" y2="64.35" style="stroke-width: 1.0;stroke: rgb(255,85,85);stroke-opacity: 1.0;stroke-linecap: square;stroke-linejoin: bevel;shape-rendering:geometricPrecision;" clip-path="url(#_22424877503419clip-2)"/><line x1="560.3" y1="64.35" x2="574.14" y2="63.45" style="stroke-width: 1.0;stroke: rgb(255,85,85);stroke-opacity: 1.0;stroke-linecap: square;stroke-linejoin: bevel;shape-rendering:geometricPrecision;" clip-path="url(#_22424877503419clip-2)"/><line x1="574.14" y1="63.45" x2="587.99" y2="62.65" style="stroke-width: 1.0;stroke: rgb(255,85,85);stroke-opacity: 1.0;stroke-linecap: square;stroke-linejoin: bevel;shape-rendering:geometricPrecision;" clip-path="url(#_22424877503419clip-2)"/><line x1="587.99" y1="62.65" x2="601.83" y2="61.93" style="stroke-width: 1.0;stroke: rgb(255,85,85);stroke-opacity: 1.0;stroke-linecap: square;stroke-linejoin: bevel;shape-rendering:geometricPrecision;" clip-path="url(#_22424877503419clip-2)"/><line x1="601.83" y1="61.93" x2="615.67" y2="61.28" style="stroke-width: 1.0;stroke: rgb(255,85,85);stroke-opacity: 1.0;stroke-linecap: square;stroke-linejoin: bevel;shape-rendering:geometricPrecision;" clip-path="url(#_22424877503419clip-2)"/><line x1="615.67" y1="61.28" x2="629.51" y2="60.7" style="stroke-width: 1.0;stroke: rgb(255,85,85);stroke-opacity: 1.0;stroke-linecap: square;stroke-linejoin: bevel;shape-rendering:geometricPrecision;" clip-path="url(#_22424877503419clip-2)"/><line x1="629.51" y1="60.7" x2="643.35" y2="60.18" style="stroke-width: 1.0;stroke: rgb(255,85,85);stroke-opacity: 1.0;stroke-linecap: square;stroke-linejoin: bevel;shape-rendering:geometricPrecision;" clip-path="url(#_22424877503419clip-2)"/><line x1="643.35" y1="60.18" x2="657.2" y2="59.71" style="stroke-width: 1.0;stroke: rgb(255,85,85);stroke-opacity: 1.0;stroke-linecap: square;stroke-linejoin: bevel;shape-rendering:geometricPrecision;" clip-path="url(#_22424877503419clip-2)"/><line x1="657.2" y1="59.71" x2="671.04" y2="59.29" style="stroke-width: 1.0;stroke: rgb(255,85,85);stroke-opacity: 1.0;stroke-linecap: square;stroke-linejoin: bevel;shape-rendering:geometricPrecision;" clip-path="url(#_22424877503419clip-2)"/><line x1="671.04" y1="59.29" x2="684.88" y2="58.91" style="stroke-width: 1.0;stroke: rgb(255,85,85);stroke-opacity: 1.0;stroke-linecap: square;stroke-linejoin: bevel;shape-rendering:geometricPrecision;" clip-path="url(#_22424877503419clip-2)"/><line x1="684.88" y1="58.91" x2="698.72" y2="58.57" style="stroke-width: 1.0;stroke: rgb(255,85,85);stroke-opacity: 1.0;stroke-linecap: square;stroke-linejoin: bevel;shape-rendering:geometricPrecision;" clip-path="url(#_22424877503419clip-2)"/><line x1="698.72" y1="58.57" x2="712.56" y2="58.26" style="stroke-width: 1.0;stroke: rgb(255,85,85);stroke-opacity: 1.0;stroke-linecap: square;stroke-linejoin: bevel;shape-rendering:geometricPrecision;" clip-path="url(#_22424877503419clip-2)"/><line x1="712.56" y1="58.26" x2="726.4" y2="57.99" style="stroke-width: 1.0;stroke: rgb(255,85,85);stroke-opacity: 1.0;stroke-linecap: square;stroke-linejoin: bevel;shape-rendering:geometricPrecision;" clip-path="url(#_22424877503419clip-2)"/><line x1="726.4" y1="57.99" x2="740.25" y2="57.74" style="stroke-width: 1.0;stroke: rgb(255,85,85);stroke-opacity: 1.0;stroke-linecap: square;stroke-linejoin: bevel;shape-rendering:geometricPrecision;" clip-path="url(#_22424877503419clip-2)"/><line x1="740.25" y1="57.74" x2="754.09" y2="57.52" style="stroke-width: 1.0;stroke: rgb(255,85,85);stroke-opacity: 1.0;stroke-linecap: square;stroke-linejoin: bevel;shape-rendering:geometricPrecision;" clip-path="url(#_22424877503419clip-2)"/><rect x="62" y="34" width="726" height="494" style="stroke-width: 0.5;stroke: rgb(0,0,0);stroke-opacity: 1.0;stroke-linecap: round;stroke-linejoin: round;shape-rendering:crispEdges;; fill: none" clip-path="url(#_22424877503419clip-0)"/></svg>
