<!DOCTYPE svg PUBLIC "-//W3C//DTD SVG 1.1//EN" "http://www.w3.org/Graphics/SVG/1.1/DTD/svg11.dtd">
<svg xmlns="http://www.w3.org/2000/svg" xmlns:xlink="http://www.w3.org/1999/xlink" xmlns:jfreesvg="http://www.jfree.org/jfreesvg/svg" width="800" height="600" text-rendering="auto" shape-rendering="auto">
<defs><clipPath id="_22430223672395clip-0"><path d="M 0 0 L 800 0 L 800 600 L 0 600 L 0 0 Z "/></clipPath>
<clipPath id="_22430223672395clip-1"><path d="M 300.5 261.5 L 300.5 1061.5 L -299.5 1061.5 L -299.5 261.5 L 300.5 261.5 Z "/></clipPath>
<clipPath id="_22430223672395clip-2"><path d="M 58 34 L 58 528 L 788 528 L 788 34 Z "/></clipPath>
</defs>
<rect x="0" y="0" width="800" height="600" style="fill: rgb(255,255,255); fill-opacity: 1.0" clip-path="url(#_22430223672395clip-0)"/><g ><text x="201.5" y="19.56" style="fill: rgb(0,0,0); fill-opacity: 1.0; font-family: sans-serif; font-size: 20px; font-weight: bold;" clip-path="url(#_22430223672395clip-0)">Zachowanie marży w trakcie 50 tur</text></g><rect x="357.5" y="578" width="85" height="21" style="fill: rgb(255,255,255); fill-opacity: 1.0" clip-path="url(#_22430223672395clip-0)"/><g style="stroke-width: 1.0;stroke: rgb(255,85,85);stroke-opacity: 1.0;stroke-linecap: square;stroke-linejoin: bevel;shape-rendering:geometricPrecision;; fill: none" clip-path="url(#_22430223672395clip-0)"><path d="M 360.5 588.5 L 374.5 588.5"/></g><g ><text x="378.5" y="592.14" style="fill: rgb(64,64,64); fill-opacity: 1.0; font-family: sans-serif; font-size: 12px;" clip-path="url(#_22430223672395clip-0)">Marża (%)</text></g><rect x="58" y="34" width="730" height="494" style="fill: rgb(192,192,192); fill-opacity: 1.0" clip-path="url(#_22430223672395clip-0)"/><line x1="58" y1="532" x2="788" y2="532" style="stroke-width: 0.5;stroke: rgb(128,128,128);stroke-opacity: 1.0;stroke-linecap: square;shape-rendering:crispEdges;" clip-path="url(#_22430223672395clip-0)"/><g ><text x="54" y="548.17" style="fill: rgb(64,64,64); fill-opacity: 1.0; font-family: sans-serif; font-size: 12px;" clip-path="url(#_22430223672395clip-0)">0</text></g><line x1="58" y1="534" x2="58" y2="532" style="stroke-width: 0.5;stroke: rgb(128,128,128);stroke-opacity: 1.0;stroke-linecap: square;shape-rendering:crispEdges;" clip-path="url(#_22430223672395clip-0)"/><g ><text x="81.84" y="548.17" style="fill: rgb(64,64,64); fill-opacity: 1.0; font-family: sans-serif; font-size: 12px;" clip-path="url(#_22430223672395clip-0)">2</text></g><line x1="85.84" y1="534" x2="85.84" y2="532" style="stroke-width: 0.5;stroke: rgb(128,128,128);stroke-opacity: 1.0;stroke-linecap: square;shape-rendering:crispEdges;" clip-path="url(#_22430223672395clip-0)"/><g ><text x="109.67" y="548.17" style="fill: rgb(64,64,64); fill-opacity: 1.0; font-family: sans-serif; font-size: 12px;" clip-path="url(#_22430223672395clip-0)">4</text></g><line x1="113.67" y1="534" x2="113.67" y2="532" style="stroke-width: 0.5;stroke: rgb(128,128,128);stroke-opacity: 1.0;stroke-linecap: square;shape-rendering:crispEdges;" clip-path="url(#_22430223672395clip-0)"/><g ><text x="137.51" y="548.17" style="fill: rgb(64,64,64); fill-opacity: 1.0; font-family: sans-serif; font-size: 12px;" clip-path="url(#_22430223672395clip-0)">6</text></g><line x1="141.51" y1="534" x2="141.51" y2="532" style="stroke-width: 0.5;stroke: rgb(128,128,128);stroke-opacity: 1.0;stroke-linecap: square;shape-rendering:crispEdges;" clip-path="url(#_22430223672395clip-0)"/><g ><text x="165.34" y="548.17" style="fill: rgb(64,64,64); fill-opacity: 1.0; font-family: sans-serif; font-size: 12px;" clip-path="url(#_22430223672395clip-0)">8</text></g><line x1="169.34" y1="534" x2="169.34" y2="532" style="stroke-width: 0.5;stroke: rgb(128,128,128);stroke-opacity: 1.0;stroke-linecap: square;shape-rendering:crispEdges;" clip-path="url(#_22430223672395clip-0)"/><g ><text x="189.68" y="548.17" style="fill: rgb(64,64,64); fill-opacity: 1.0; font-family: sans-serif; font-size: 12px;" clip-path="url(#_22430223672395clip-0)">10</text></g><line x1="197.18" y1="534" x2="197.18" y2="532" style="stroke-width: 0.5;stroke: rgb(128,128,128);stroke-opacity: 1.0;stroke-linecap: square;shape-rendering:crispEdges;" clip-path="url(#_22430223672395clip-0)"/><g ><text x="217.52" y="548.17" style="fill: rgb(64,64,64); fill-opacity: 1.0; font-family: sans-serif; font-size: 12px;" clip-path="url(#_22430223672395clip-0)">12</text></g><line x1="225.02" y1="534" x2="225.02" y2="532" style="stroke-width: 0.5;stroke: rgb(128,128,128);stroke-opacity: 1.0;stroke-linecap: square;shape-rendering:crispEdges;" clip-path="url(#_22430223672395clip-0)"/><g ><text x="245.35" y="548.17" style="fill: rgb(64,64,64); fill-opacity: 1.0; font-family: sans-serif; font-size: 12px;" clip-path="url(#_22430223672395clip-0)">14</text></g><line x1="252.85" y1="534" x2="252.85" y2="532" style="stroke-width: 0.5;stroke: rgb(128,128,128);stroke-opacity: 1.0;stroke-linecap: square;shape-rendering:crispEdges;" clip-path="url(#_22430223672395clip-0)"/><g ><text x="273.19" y="548.17" style="fill: rgb(64,64,64); fill-opacity: 1.0; font-family: sans-serif; font-size: 12px;" clip-path="url(#_22430223672395clip-0)">16</text></g><line x1="280.69" y1="534" x2="280.69" y2="532" style="stroke-width: 0.5;stroke: rgb(128,128,128);stroke-opacity: 1.0;stroke-linecap: square;shape-rendering:crispEdges;" clip-path="url(#_22430223672395clip-0)"/><g ><text x="301.02" y="548.17" style="fill: rgb(64,64,64); fill-opacity: 1.0; font-family: sans-serif; font-size: 12px;" clip-path="url(#_22430223672395clip-0)">18</text></g><line x1="308.52" y1="534" x2="308.52" y2="532" style="stroke-width: 0.5;stroke: rgb(128,128,128);stroke-opacity: 1.0;stroke-linecap: square;shape-rendering:crispEdges;" clip-path="url(#_22430223672395clip-0)"/><g ><text x="328.86" y="548.17" style="fill: rgb(64,64,64); fill-opacity: 1.0; font-family: sans-serif; font-size: 12px;" clip-path="url(#_22430223672395clip-0)">20</text></g><line x1="336.36" y1="534" x2="336.36" y2="532" style="stroke-width: 0.5;stroke: rgb(128,128,128);stroke-opacity: 1.0;stroke-linecap: square;shape-rendering:crispEdges;" clip-path="url(#_22430223672395clip-0)"/><g ><text x="356.7" y="548.17" style="fill: rgb(64,64,64); fill-opacity: 1.0; font-family: sans-serif; font-size: 12px;" clip-path="url(#_22430223672395clip-0)">22</text></g><line x1="364.2" y1="534" x2="364.2" y2="532" style="stroke-width: 0.5;stroke: rgb(128,128,128);stroke-opacity: 1.0;stroke-linecap: square;shape-rendering:crispEdges;" clip-path="url(#_22430223672395clip-0)"/><g ><text x="384.53" y="548.17" style="fill: rgb(64,64,64); fill-opacity: 1.0; font-family: sans-serif; font-size: 12px;" clip-path="url(#_22430223672395clip-0)">24</text></g><line x1="392.03" y1="534" x2="392.03" y2="532" style="stroke-width: 0.5;stroke: rgb(128,128,128);stroke-opacity: 1.0;stroke-linecap: square;shape-rendering:crispEdges;" clip-path="url(#_22430223672395clip-0)"/><g ><text x="412.37" y="548.17" style="fill: rgb(64,64,64); fill-opacity: 1.0; font-family: sans-serif; font-size: 12px;" clip-path="url(#_22430223672395clip-0)">26</text></g><line x1="419.87" y1="534" x2="419.87" y2="532" style="stroke-width: 0.5;stroke: rgb(128,128,128);stroke-opacity: 1.0;stroke-linecap: square;shape-rendering:crispEdges;" clip-path="url(#_22430223672395clip-0)"/><g ><text x="440.2" y="548.17" style="fill: rgb(64,64,64); fill-opacity: 1.0; font-family: sans-serif; font-size: 12px;" clip-path="url(#_22430223672395clip-0)">28</text></g><line x1="447.7" y1="534" x2="447.7" y2="532" style="stroke-width: 0.5;stroke: rgb(128,128,128);stroke-opacity: 1.0;stroke-linecap: square;shape-rendering:crispEdges;" clip-path="url(#_22430223672395clip-0)"/><g ><text x="468.04" y="548.17" style="fill: rgb(64,64,64); fill-opacity: 1.0; font-family: sans-serif; font-size: 12px;" clip-path="url(#_22430223672395clip-0)">30</text></g><line x1="475.54" y1="534" x2="475.54" y2="532" style="stroke-width: 0.5;stroke: rgb(128,128,128);stroke-opacity: 1.0;stroke-linecap: square;shape-rendering:crispEdges;" clip-path="url(#_22430223672395clip-0)"/><g ><text x="495.88" y="548.17" style="fill: rgb(64,64,64); fill-opacity: 1.0; font-family: sans-serif; font-size: 12px;" clip-path="url(#_22430223672395clip-0)">32</text></g><line x1="503.38" y1="534" x2="503.38" y2="532" style="stroke-width: 0.5;stroke: rgb(128,128,128);stroke-opacity: 1.0;stroke-linecap: square;shape-rendering:crispEdges;" clip-path="url(#_22430223672395clip-0)"/><g ><text x="523.71" y="548.17" style="fill: rgb(64,64,64); fill-opacity: 1.0; font-family: sans-serif; font-size: 12px;" clip-path="url(#_22430223672395clip-0)">34</text></g><line x1="531.21" y1="534" x2="531.21" y2="532" style="stroke-width: 0.5;stroke: rgb(128,128,128);stroke-opacity: 1.0;stroke-linecap: square;shape-rendering:crispEdges;" clip-path="url(#_22430223672395clip-0)"/><g ><text x="551.55" y="548.17" style="fill: rgb(64,64,64); fill-opacity: 1.0; font-family: sans-serif; font-size: 12px;" clip-path="url(#_22430223672395clip-0)">36</text></g><line x1="559.05" y1="534" x2="559.05" y2="532" style="stroke-width: 0.5;stroke: rgb(128,128,128);stroke-opacity: 1.0;stroke-linecap: square;shape-rendering:crispEdges;" clip-path="url(#_22430223672395clip-0)"/><g ><text x="579.38" y="548.17" style="fill: rgb(64,64,64); fill-opacity: 1.0; font-family: sans-serif; font-size: 12px;" clip-path="url(#_22430223672395clip-0)">38</text></g><line x1="586.88" y1="534" x2="586.88" y2="532" style="stroke-width: 0.5;stroke: rgb(128,128,128);stroke-opacity: 1.0;stroke-linecap: square;shape-rendering:crispEdges;" clip-path="url(#_22430223672395clip-0)"/><g ><text x="607.22" y="548.17" style="fill: rgb(64,64,64); fill-opacity: 1.0; font-family: sans-serif; font-size: 12px;" clip-path="url(#_22430223672395clip-0)">40</text></g><line x1="614.72" y1="534" x2="614.72" y2="532" style="stroke-width: 0.5;stroke: rgb(128,128,128);stroke-opacity: 1.0;stroke-linecap: square;shape-rendering:crispEdges;" clip-path="url(#_22430223672395clip-0)"/><g ><text x="635.06" y="548.17" style="fill: rgb(64,64,64); fill-opacity: 1.0; font-family: sans-serif; font-size: 12px;" clip-path="url(#_22430223672395clip-0)">42</text></g><line x1="642.56" y1="534" x2="642.56" y2="532" style="stroke-width: 0.5;stroke: rgb(128,128,128);stroke-opacity: 1.0;stroke-linecap: square;shape-rendering:crispEdges;" clip-path="url(#_22430223672395clip-0)"/><g ><text x="662.89" y="548.17" style="fill: rgb(64,64,64); fill-opacity: 1.0; font-family: sans-serif; font-size: 12px;" clip-path="url(#_22430223672395clip-0)">44</text></g><line x1="670.39" y1="534" x2="670.39" y2="532" style="stroke-width: 0.5;stroke: rgb(128,128,128);stroke-opacity: 1.0;stroke-linecap: square;shape-rendering:crispEdges;" clip-path="url(#_22430223672395clip-0)"/><g ><text x="690.73" y="548.17" style="fill: rgb(64,64,64); fill-opacity: 1.0; font-family: sans-serif; font-size: 12px;" clip-path="url(#_22430223672395clip-0)">46</text></g><line x1="698.23" y1="534" x2="698.23" y2="532" style="stroke-width: 0.5;stroke: rgb(128,128,128);stroke-opacity: 1.0;stroke-linecap: square;shape-rendering:crispEdges;" clip-path="url(#_22430223672395clip-0)"/><g ><text x="718.56" y="548.17" style="fill: rgb(64,64,64); fill-opacity: 1.0; font-family: sans-serif; font-size: 12px;" clip-path="url(#_22430223672395clip-0)">48</text></g><line x1="726.06" y1="534" x2="726.06" y2="532" style="stroke-width: 0.5;stroke: rgb(128,128,128);stroke-opacity: 1.0;stroke-linecap: square;shape-rendering:crispEdges;" clip-path="url(#_22430223672395clip-0)"/><g ><text x="746.4" y="548.17" style="fill: rgb(64,64,64); fill-opacity: 1.0; font-family: sans-serif; font-size: 12px;" clip-path="url(#_22430223672395clip-0)">50</text></g><line x1="753.9" y1="534" x2="753.9" y2="532" style="stroke-width: 0.5;stroke: rgb(128,128,128);stroke-opacity: 1.0;stroke-linecap: square;shape-rendering:crispEdges;" clip-path="url(#_22430223672395clip-0)"/><g ><text x="774.24" y="548.17" style="fill: rgb(64,64,64); fill-opacity: 1.0; font-family: sans-serif; font-size: 12px;" clip-path="url(#_22430223672395clip-0)">52</text></g><line x1="781.74" y1="534" x2="781.74" y2="532" style="stroke-width: 0.5;stroke: rgb(128,128,128);stroke-opacity: 1.0;stroke-linecap: square;shape-rendering:crispEdges;" clip-path="url(#_22430223672395clip-0)"/><g ><text x="405" y="566.67" style="fill: rgb(64,64,64); fill-opacity: 1.0; font-family: sans-serif; font-size: 14px; font-weight: bold;" clip-path="url(#_22430223672395clip-0)">Tura</text></g><line x1="54" y1="34" x2="54" y2="528" style="stroke-width: 0.5;stroke: rgb(128,128,128);stroke-opacity: 1.0;stroke-linecap: square;shape-rendering:crispEdges;" clip-path="url(#_22430223672395clip-0)"/><g ><text x="40" y="532.67" style="fill: rgb(64,64,64); fill-opacity: 1.0; font-family: sans-serif; font-size: 12px;" clip-path="url(#_22430223672395clip-0)">0</text></g><line x1="52" y1="528" x2="54" y2="528" style="stroke-width: 0.5;stroke: rgb(128,128,128);stroke-opacity: 1.0;stroke-linecap: square;shape-rendering:crispEdges;" clip-path="url(#_22430223672395clip-0)"/><g ><text x="40" y="509.09" style="fill: rgb(64,64,64); fill-opacity: 1.0; font-family: sans-serif; font-size: 12px;" clip-path="url(#_22430223672395clip-0)">1</text></g><line x1="52" y1="504.42" x2="54" y2="504.42" style="stroke-width: 0.5;stroke: rgb(128,128,128);stroke-opacity: 1.0;stroke-linecap: square;shape-rendering:crispEdges;" clip-path="url(#_22430223672395clip-0)"/><g ><text x="40" y="485.5" style="fill: rgb(64,64,64); fill-opacity: 1.0; font-family: sans-serif; font-size: 12px;" clip-path="url(#_22430223672395clip-0)">2</text></g><line x1="52" y1="480.83" x2="54" y2="480.83" style="stroke-width: 0.5;stroke: rgb(128,128,128);stroke-opacity: 1.0;stroke-linecap: square;shape-rendering:crispEdges;" clip-path="url(#_22430223672395clip-0)"/><g ><text x="40" y="461.92" style="fill: rgb(64,64,64); fill-opacity: 1.0; font-family: sans-serif; font-size: 12px;" clip-path="url(#_22430223672395clip-0)">3</text></g><line x1="52" y1="457.25" x2="54" y2="457.25" style="stroke-width: 0.5;stroke: rgb(128,128,128);stroke-opacity: 1.0;stroke-linecap: square;shape-rendering:crispEdges;" clip-path="url(#_22430223672395clip-0)"/><g ><text x="40" y="438.33" style="fill: rgb(64,64,64); fill-opacity: 1.0; font-family: sans-serif; font-size: 12px;" clip-path="url(#_22430223672395clip-0)">4</text></g><line x1="52" y1="433.66" x2="54" y2="433.66" style="stroke-width: 0.5;stroke: rgb(128,128,128);stroke-opacity: 1.0;stroke-linecap: square;shape-rendering:crispEdges;" clip-path="url(#_22430223672395clip-0)"/><g ><text x="40" y="414.75" style="fill: rgb(64,64,64); fill-opacity: 1.0; font-family: sans-serif; font-size: 12px;" clip-path="url(#_22430223672395clip-0)">5</text></g><line x1="52" y1="410.08" x2="54" y2="410.08" style="stroke-width: 0.5;stroke: rgb(128,128,128);stroke-opacity: 1.0;stroke-linecap: square;shape-rendering:crispEdges;" clip-path="url(#_22430223672395clip-0)"/><g ><text x="40" y="391.16" style="fill: rgb(64,64,64); fill-opacity: 1.0; font-family: sans-serif; font-size: 12px;" clip-path="url(#_22430223672395clip-0)">6</text></g><line x1="52" y1="386.49" x2="54" y2="386.49" style="stroke-width: 0.5;stroke: rgb(128,128,128);stroke-opacity: 1.0;stroke-linecap: square;shape-rendering:crispEdges;" clip-path="url(#_22430223672395clip-0)"/><g ><text x="40" y="367.58" style="fill: rgb(64,64,64); fill-opacity: 1.0; font-family: sans-serif; font-size: 12px;" clip-path="url(#_22430223672395clip-0)">7</text></g><line x1="52" y1="362.91" x2="54" y2="362.91" style="stroke-width: 0.5;stroke: rgb(128,128,128);stroke-opacity: 1.0;stroke-linecap: square;shape-rendering:crispEdges;" clip-path="url(#_22430223672395clip-0)"/><g ><text x="40" y="343.99" style="fill: rgb(64,64,64); fill-opacity: 1.0; font-family: sans-serif; font-size: 12px;" clip-path="url(#_22430223672395clip-0)">8</text></g><line x1="52" y1="339.32" x2="54" y2="339.32" style="stroke-width: 0.5;stroke: rgb(128,128,128);stroke-opacity: 1.0;stroke-linecap: square;shape-rendering:crispEdges;" clip-path="url(#_22430223672395clip-0)"/><g ><text x="40" y="320.41" style="fill: rgb(64,64,64); fill-opacity: 1.0; font-family: sans-serif; font-size: 12px;" clip-path="url(#_22430223672395clip-0)">9</text></g><line x1="52" y1="315.74" x2="54" y2="315.74" style="stroke-width: 0.5;stroke: rgb(128,128,128);stroke-opacity: 1.0;stroke-linecap: square;shape-rendering:crispEdges;" clip-path="url(#_22430223672395clip-0)"/><g ><text x="33" y="296.82" style="fill: rgb(64,64,64); fill-opacity: 1.0; font-family: sans-serif; font-size: 12px;" clip-path="url(#_22430223672395clip-0)">10</text></g><line x1="52" y1="292.15" x2="54" y2="292.15" style="stroke-width: 0.5;stroke: rgb(128,128,128);stroke-opacity: 1.0;stroke-linecap: square;shape-rendering:crispEdges;" clip-path="url(#_22430223672395clip-0)"/><g ><text x="33" y="273.24" style="fill: rgb(64,64,64); fill-opacity: 1.0; font-family: sans-serif; font-size: 12px;" clip-path="url(#_22430223672395clip-0)">11</text></g><line x1="52" y1="268.57" x2="54" y2="268.57" style="stroke-width: 0.5;stroke: rgb(128,128,128);stroke-opacity: 1.0;stroke-linecap: square;shape-rendering:crispEdges;" clip-path="url(#_22430223672395clip-0)"/><g ><text x="33" y="249.65" style="fill: rgb(64,64,64); fill-opacity: 1.0; font-family: sans-serif; font-size: 12px;" clip-path="url(#_22430223672395clip-0)">12</text></g><line x1="52" y1="244.98" x2="54" y2="244.98" style="stroke-width: 0.5;stroke: rgb(128,128,128);stroke-opacity: 1.0;stroke-linecap: square;shape-rendering:crispEdges;" clip-path="url(#_22430223672395clip-0)"/><g ><text x="33" y="226.07" style="fill: rgb(64,64,64); fill-opacity: 1.0; font-family: sans-serif; font-size: 12px;" clip-path="url(#_22430223672395clip-0)">13</text></g><line x1="52" y1="221.4" x2="54" y2="221.4" style="stroke-width: 0.5;stroke: rgb(128,128,128);stroke-opacity: 1.0;stroke-linecap: square;shape-rendering:crispEdges;" clip-path="url(#_22430223672395clip-0)"/><g ><text x="33" y="202.49" style="fill: rgb(64,64,64); fill-opacity: 1.0; font-family: sans-serif; font-size: 12px;" clip-path="url(#_22430223672395clip-0)">14</text></g><line x1="52" y1="197.82" x2="54" y2="197.82" style="stroke-width: 0.5;stroke: rgb(128,128,128);stroke-opacity: 1.0;stroke-linecap: square;shape-rendering:crispEdges;" clip-path="url(#_22430223672395clip-0)"/><g ><text x="33" y="178.9" style="fill: rgb(64,64,64); fill-opacity: 1.0; font-family: sans-serif; font-size: 12px;" clip-path="url(#_22430223672395clip-0)">15</text></g><line x1="52" y1="174.23" x2="54" y2="174.23" style="stroke-width: 0.5;stroke: rgb(128,128,128);stroke-opacity: 1.0;stroke-linecap: square;shape-rendering:crispEdges;" clip-path="url(#_22430223672395clip-0)"/><g ><text x="33" y="155.32" style="fill: rgb(64,64,64); fill-opacity: 1.0; font-family: sans-serif; font-size: 12px;" clip-path="url(#_22430223672395clip-0)">16</text></g><line x1="52" y1="150.65" x2="54" y2="150.65" style="stroke-width: 0.5;stroke: rgb(128,128,128);stroke-opacity: 1.0;stroke-linecap: square;shape-rendering:crispEdges;" clip-path="url(#_22430223672395clip-0)"/><g ><text x="33" y="131.73" style="fill: rgb(64,64,64); fill-opacity: 1.0; font-family: sans-serif; font-size: 12px;" clip-path="url(#_22430223672395clip-0)">17</text></g><line x1="52" y1="127.06" x2="54" y2="127.06" style="stroke-width: 0.5;stroke: rgb(128,128,128);stroke-opacity: 1.0;stroke-linecap: square;shape-rendering:crispEdges;" clip-path="url(#_22430223672395clip-0)"/><g ><text x="33" y="108.15" style="fill: rgb(64,64,64); fill-opacity: 1.0; font-family: sans-serif; font-size: 12px;" clip-path="url(#_22430223672395clip-0)">18</text></g><line x1="52" y1="103.48" x2="54" y2="103.48" style="stroke-width: 0.5;stroke: rgb(128,128,128);stroke-opacity: 1.0;stroke-linecap: square;shape-rendering:crispEdges;" clip-path="url(#_22430223672395clip-0)"/><g ><text x="33" y="84.56" style="fill: rgb(64,64,64); fill-opacity: 1.0; font-family: sans-serif; font-size: 12px;" clip-path="url(#_22430223672395clip-0)">19</text></g><line x1="52" y1="79.89" x2="54" y2="79.89" style="stroke-width: 0.5;stroke: rgb(128,128,128);stroke-opacity: 1.0;stroke-linecap: square;shape-rendering:crispEdges;" clip-path="url(#_22430223672395clip-0)"/><g ><text x="33" y="60.98" style="fill: rgb(64,64,64); fill-opacity: 1.0; font-family: sans-serif; font-size: 12px;" clip-path="url(#_22430223672395clip-0)">20</text></g><line x1="52" y1="56.31" x2="54" y2="56.31" style="stroke-width: 0.5;stroke: rgb(128,128,128);stroke-opacity: 1.0;stroke-linecap: square;shape-rendering:crispEdges;" clip-path="url(#_22430223672395clip-0)"/><g style="fill: rgb(64,64,64); fill-opacity: 1.0; stroke: none" transform="matrix(0,-1,1,0,-261.5,300.5)" clip-path="url(#_22430223672395clip-1)"><path d="M -19.22 276 L -15.86 276 L -13.55 281.45 L -11.2 276 L -7.86 276 L -7.86 286.2 L -10.34 286.2 L -10.34 278.73 L -12.7 284.23 L -14.38 284.23 L -16.72 278.73 L -16.72 286.2 L -19.22 286.2 L -19.22 276 Z  M -1.96 282.75 Q -2.72 282.75 -3.12 283.01 Q -3.51 283.28 -3.51 283.78 Q -3.51 284.25 -3.19 284.51 Q -2.88 284.78 -2.32 284.78 Q -1.63 284.78 -1.16 284.28 Q -0.69 283.78 -0.69 283.03 L -0.69 282.75 L -1.96 282.75 Z  M 1.78 281.82 L 1.78 286.2 L -0.69 286.2 L -0.69 285.06 Q -1.18 285.76 -1.8 286.09 Q -2.41 286.4 -3.29 286.4 Q -4.49 286.4 -5.22 285.71 Q -5.96 285.01 -5.96 283.9 Q -5.96 282.56 -5.04 281.93 Q -4.12 281.29 -2.13 281.29 L -0.69 281.29 L -0.69 281.1 Q -0.69 280.53 -1.15 280.26 Q -1.6 279.98 -2.57 279.98 Q -3.37 279.98 -4.04 280.14 Q -4.71 280.29 -5.3 280.62 L -5.3 278.75 Q -4.51 278.56 -3.72 278.46 Q -2.93 278.35 -2.13 278.35 Q -0.05 278.35 0.85 279.18 Q 1.78 280 1.78 281.82 Z  M 9.74 280.62 Q 9.43 280.48 9.1 280.42 Q 8.79 280.34 8.46 280.34 Q 7.52 280.34 7 280.95 Q 6.5 281.54 6.5 282.67 L 6.5 286.2 L 4.05 286.2 L 4.05 278.54 L 6.5 278.54 L 6.5 279.79 Q 6.97 279.04 7.58 278.7 Q 8.19 278.35 9.05 278.35 Q 9.18 278.35 9.32 278.37 Q 9.46 278.37 9.74 278.42 L 9.74 280.62 Z  M 12.64 275.56 L 15.08 275.56 L 15.08 277.56 L 12.64 277.56 L 12.64 275.56 Z  M 10.58 278.54 L 17.27 278.54 L 17.27 280.25 L 13.24 284.45 L 17.27 284.45 L 17.27 286.2 L 10.41 286.2 L 10.41 284.5 L 14.44 280.29 L 10.58 280.29 L 10.58 278.54 Z  M 22.54 282.75 Q 21.78 282.75 21.38 283.01 Q 20.99 283.28 20.99 283.78 Q 20.99 284.25 21.31 284.51 Q 21.62 284.78 22.18 284.78 Q 22.87 284.78 23.34 284.28 Q 23.81 283.78 23.81 283.03 L 23.81 282.75 L 22.54 282.75 Z  M 26.28 281.82 L 26.28 286.2 L 23.81 286.2 L 23.81 285.06 Q 23.32 285.76 22.7 286.09 Q 22.09 286.4 21.21 286.4 Q 20.01 286.4 19.28 285.71 Q 18.54 285.01 18.54 283.9 Q 18.54 282.56 19.46 281.93 Q 20.38 281.29 22.37 281.29 L 23.81 281.29 L 23.81 281.1 Q 23.81 280.53 23.35 280.26 Q 22.9 279.98 21.93 279.98 Q 21.13 279.98 20.46 280.14 Q 19.79 280.29 19.2 280.62 L 19.2 278.75 Q 19.99 278.56 20.78 278.46 Q 21.57 278.35 22.37 278.35 Q 24.45 278.35 25.35 279.18 Q 26.28 280 26.28 281.82 Z  M 37.53 288.04 L 35.5 288.04 Q 34.46 286.35 33.96 284.84 Q 33.46 283.31 33.46 281.82 Q 33.46 280.32 33.96 278.79 Q 34.46 277.25 35.5 275.57 L 37.53 275.57 Q 36.66 277.2 36.22 278.75 Q 35.78 280.29 35.78 281.81 Q 35.78 283.31 36.21 284.87 Q 36.64 286.42 37.53 288.04 Z  M 49.5 281.98 Q 49.01 281.98 48.75 282.4 Q 48.48 282.82 48.48 283.6 Q 48.48 284.39 48.75 284.81 Q 49.01 285.23 49.5 285.23 Q 50 285.23 50.25 284.81 Q 50.51 284.39 50.51 283.6 Q 50.51 282.82 50.25 282.4 Q 49.98 281.98 49.5 281.98 Z  M 49.5 280.84 Q 50.78 280.84 51.5 281.57 Q 52.23 282.31 52.23 283.6 Q 52.23 284.9 51.5 285.65 Q 50.78 286.4 49.5 286.4 Q 48.23 286.4 47.5 285.65 Q 46.76 284.9 46.76 283.6 Q 46.76 282.32 47.5 281.59 Q 48.23 280.84 49.5 280.84 Z  M 43.23 286.4 L 41.71 286.4 L 48.1 275.81 L 49.62 275.81 L 43.23 286.4 Z  M 41.82 275.81 Q 43.1 275.81 43.82 276.56 Q 44.56 277.29 44.56 278.59 Q 44.56 279.87 43.82 280.62 Q 43.1 281.37 41.82 281.37 Q 40.56 281.37 39.82 280.62 Q 39.1 279.87 39.1 278.59 Q 39.1 277.29 39.82 276.56 Q 40.56 275.81 41.82 275.81 Z  M 41.82 276.95 Q 41.34 276.95 41.07 277.39 Q 40.81 277.81 40.81 278.59 Q 40.81 279.37 41.07 279.81 Q 41.34 280.23 41.82 280.23 Q 42.32 280.23 42.59 279.81 Q 42.85 279.37 42.85 278.59 Q 42.85 277.81 42.59 277.39 Q 42.32 276.95 41.82 276.95 Z  M 53.8 288.04 Q 54.68 286.42 55.12 284.87 Q 55.55 283.31 55.55 281.81 Q 55.55 280.29 55.12 278.75 Q 54.68 277.2 53.8 275.57 L 55.83 275.57 Q 56.87 277.25 57.37 278.79 Q 57.88 280.32 57.88 281.82 Q 57.88 283.31 57.38 284.84 Q 56.88 286.35 55.83 288.04 L 53.8 288.04 Z "/></g><line x1="58" y1="34" x2="58" y2="528" style="stroke-width: 0.5;stroke: rgb(255,255,255);stroke-opacity: 1.0;stroke-linejoin: bevel;stroke-dasharray: 2.0, 2.0;shape-rendering:crispEdges;" clip-path="url(#_22430223672395clip-2)"/><line x1="85.84" y1="34" x2="85.84" y2="528" style="stroke-width: 0.5;stroke: rgb(255,255,255);stroke-opacity: 1.0;stroke-linejoin: bevel;stroke-dasharray: 2.0, 2.0;shape-rendering:crispEdges;" clip-path="url(#_22430223672395clip-2)"/><line x1="113.67" y1="34" x2="113.67" y2="528" style="stroke-width: 0.5;stroke: rgb(255,255,255);stroke-opacity: 1.0;stroke-linejoin: bevel;stroke-dasharray: 2.0, 2.0;shape-rendering:crispEdges;" clip-path="url(#_22430223672395clip-2)"/><line x1="141.51" y1="34" x2="141.51" y2="528" style="stroke-width: 0.5;stroke: rgb(255,255,255);stroke-opacity: 1.0;stroke-linejoin: bevel;stroke-dasharray: 2.0, 2.0;shape-rendering:crispEdges;" clip-path="url(#_22430223672395clip-2)"/><line x1="169.34" y1="34" x2="169.34" y2="528" style="stroke-width: 0.5;stroke: rgb(255,255,255);stroke-opacity: 1.0;stroke-linejoin: bevel;stroke-dasharray: 2.0, 2.0;shape-rendering:crispEdges;" clip-path="url(#_22430223672395clip-2)"/><line x1="197.18" y1="34" x2="197.18" y2="528" style="stroke-width: 0.5;stroke: rgb(255,255,255);stroke-opacity: 1.0;stroke-linejoin: bevel;stroke-dasharray: 2.0, 2.0;shape-rendering:crispEdges;" clip-path="url(#_22430223672395clip-2)"/><line x1="225.02" y1="34" x2="225.02" y2="528" style="stroke-width: 0.5;stroke: rgb(255,255,255);stroke-opacity: 1.0;stroke-linejoin: bevel;stroke-dasharray: 2.0, 2.0;shape-rendering:crispEdges;" clip-path="url(#_22430223672395clip-2)"/><line x1="252.85" y1="34" x2="252.85" y2="528" style="stroke-width: 0.5;stroke: rgb(255,255,255);stroke-opacity: 1.0;stroke-linejoin: bevel;stroke-dasharray: 2.0, 2.0;shape-rendering:crispEdges;" clip-path="url(#_22430223672395clip-2)"/><line x1="280.69" y1="34" x2="280.69" y2="528" style="stroke-width: 0.5;stroke: rgb(255,255,255);stroke-opacity: 1.0;stroke-linejoin: bevel;stroke-dasharray: 2.0, 2.0;shape-rendering:crispEdges;" clip-path="url(#_22430223672395clip-2)"/><line x1="308.52" y1="34" x2="308.52" y2="528" style="stroke-width: 0.5;stroke: rgb(255,255,255);stroke-opacity: 1.0;stroke-linejoin: bevel;stroke-dasharray: 2.0, 2.0;shape-rendering:crispEdges;" clip-path="url(#_22430223672395clip-2)"/><line x1="336.36" y1="34" x2="336.36" y2="528" style="stroke-width: 0.5;stroke: rgb(255,255,255);stroke-opacity: 1.0;stroke-linejoin: bevel;stroke-dasharray: 2.0, 2.0;shape-rendering:crispEdges;" clip-path="url(#_22430223672395clip-2)"/><line x1="364.2" y1="34" x2="364.2" y2="528" style="stroke-width: 0.5;stroke: rgb(255,255,255);stroke-opacity: 1.0;stroke-linejoin: bevel;stroke-dasharray: 2.0, 2.0;shape-rendering:crispEdges;" clip-path="url(#_22430223672395clip-2)"/><line x1="392.03" y1="34" x2="392.03" y2="528" style="stroke-width: 0.5;stroke: rgb(255,255,255);stroke-opacity: 1.0;stroke-linejoin: bevel;stroke-dasharray: 2.0, 2.0;shape-rendering:crispEdges;" clip-path="url(#_22430223672395clip-2)"/><line x1="419.87" y1="34" x2="419.87" y2="528" style="stroke-width: 0.5;stroke: rgb(255,255,255);stroke-opacity: 1.0;stroke-linejoin: bevel;stroke-dasharray: 2.0, 2.0;shape-rendering:crispEdges;" clip-path="url(#_22430223672395clip-2)"/><line x1="447.7" y1="34" x2="447.7" y2="528" style="stroke-width: 0.5;stroke: rgb(255,255,255);stroke-opacity: 1.0;stroke-linejoin: bevel;stroke-dasharray: 2.0, 2.0;shape-rendering:crispEdges;" clip-path="url(#_22430223672395clip-2)"/><line x1="475.54" y1="34" x2="475.54" y2="528" style="stroke-width: 0.5;stroke: rgb(255,255,255);stroke-opacity: 1.0;stroke-linejoin: bevel;stroke-dasharray: 2.0, 2.0;shape-rendering:crispEdges;" clip-path="url(#_22430223672395clip-2)"/><line x1="503.38" y1="34" x2="503.38" y2="528" style="stroke-width: 0.5;stroke: rgb(255,255,255);stroke-opacity: 1.0;stroke-linejoin: bevel;stroke-dasharray: 2.0, 2.0;shape-rendering:crispEdges;" clip-path="url(#_22430223672395clip-2)"/><line x1="531.21" y1="34" x2="531.21" y2="528" style="stroke-width: 0.5;stroke: rgb(255,255,255);stroke-opacity: 1.0;stroke-linejoin: bevel;stroke-dasharray: 2.0, 2.0;shape-rendering:crispEdges;" clip-path="url(#_22430223672395clip-2)"/><line x1="559.05" y1="34" x2="559.05" y2="528" style="stroke-width: 0.5;stroke: rgb(255,255,255);stroke-opacity: 1.0;stroke-linejoin: bevel;stroke-dasharray: 2.0, 2.0;shape-rendering:crispEdges;" clip-path="url(#_22430223672395clip-2)"/><line x1="586.88" y1="34" x2="586.88" y2="528" style="stroke-width: 0.5;stroke: rgb(255,255,255);stroke-opacity: 1.0;stroke-linejoin: bevel;stroke-dasharray: 2.0, 2.0;shape-rendering:crispEdges;" clip-path="url(#_22430223672395clip-2)"/><line x1="614.72" y1="34" x2="614.72" y2="528" style="stroke-width: 0.5;stroke: rgb(255,255,255);stroke-opacity: 1.0;stroke-linejoin: bevel;stroke-dasharray: 2.0, 2.0;shape-rendering:crispEdges;" clip-path="url(#_22430223672395clip-2)"/><line x1="642.56" y1="34" x2="642.56" y2="528" style="stroke-width: 0.5;stroke: rgb(255,255,255);stroke-opacity: 1.0;stroke-linejoin: bevel;stroke-dasharray: 2.0, 2.0;shape-rendering:crispEdges;" clip-path="url(#_22430223672395clip-2)"/><line x1="670.39" y1="34" x2="670.39" y2="528" style="stroke-width: 0.5;stroke: rgb(255,255,255);stroke-opacity: 1.0;stroke-linejoin: bevel;stroke-dasharray: 2.0, 2.0;shape-rendering:crispEdges;" clip-path="url(#_22430223672395clip-2)"/><line x1="698.23" y1="34" x2="698.23" y2="528" style="stroke-width: 0.5;stroke: rgb(255,255,255);stroke-opacity: 1.0;stroke-linejoin: bevel;stroke-dasharray: 2.0, 2.0;shape-rendering:crispEdges;" clip-path="url(#_22430223672395clip-2)"/><line x1="726.06" y1="34" x2="726.06" y2="528" style="stroke-width: 0.5;stroke: rgb(255,255,255);stroke-opacity: 1.0;stroke-linejoin: bevel;stroke-dasharray: 2.0, 2.0;shape-rendering:crispEdges;" clip-path="url(#_22430223672395clip-2)"/><line x1="753.9" y1="34" x2="753.9" y2="528" style="stroke-width: 0.5;stroke: rgb(255,255,255);stroke-opacity: 1.0;stroke-linejoin: bevel;stroke-dasharray: 2.0, 2.0;shape-rendering:crispEdges;" clip-path="url(#_22430223672395clip-2)"/><line x1="781.74" y1="34" x2="781.74" y2="528" style="stroke-width: 0.5;stroke: rgb(255,255,255);stroke-opacity: 1.0;stroke-linejoin: bevel;stroke-dasharray: 2.0, 2.0;shape-rendering:crispEdges;" clip-path="url(#_22430223672395clip-2)"/><line x1="58" y1="528" x2="788" y2="528" style="stroke-width: 0.5;stroke: rgb(255,255,255);stroke-opacity: 1.0;stroke-linejoin: bevel;stroke-dasharray: 2.0, 2.0;shape-rendering:crispEdges;" clip-path="url(#_22430223672395clip-2)"/><line x1="58" y1="504.42" x2="788" y2="504.42" style="stroke-width: 0.5;stroke: rgb(255,255,255);stroke-opacity: 1.0;stroke-linejoin: bevel;stroke-dasharray: 2.0, 2.0;shape-rendering:crispEdges;" clip-path="url(#_22430223672395clip-2)"/><line x1="58" y1="480.83" x2="788" y2="480.83" style="stroke-width: 0.5;stroke: rgb(255,255,255);stroke-opacity: 1.0;stroke-linejoin: bevel;stroke-dasharray: 2.0, 2.0;shape-rendering:crispEdges;" clip-path="url(#_22430223672395clip-2)"/><line x1="58" y1="457.25" x2="788" y2="457.25" style="stroke-width: 0.5;stroke: rgb(255,255,255);stroke-opacity: 1.0;stroke-linejoin: bevel;stroke-dasharray: 2.0, 2.0;shape-rendering:crispEdges;" clip-path="url(#_22430223672395clip-2)"/><line x1="58" y1="433.66" x2="788" y2="433.66" style="stroke-width: 0.5;stroke: rgb(255,255,255);stroke-opacity: 1.0;stroke-linejoin: bevel;stroke-dasharray: 2.0, 2.0;shape-rendering:crispEdges;" clip-path="url(#_22430223672395clip-2)"/><line x1="58" y1="410.08" x2="788" y2="410.08" style="stroke-width: 0.5;stroke: rgb(255,255,255);stroke-opacity: 1.0;stroke-linejoin: bevel;stroke-dasharray: 2.0, 2.0;shape-rendering:crispEdges;" clip-path="url(#_22430223672395clip-2)"/><line x1="58" y1="386.49" x2="788" y2="386.49" style="stroke-width: 0.5;stroke: rgb(255,255,255);stroke-opacity: 1.0;stroke-linejoin: bevel;stroke-dasharray: 2.0, 2.0;shape-rendering:crispEdges;" clip-path="url(#_22430223672395clip-2)"/><line x1="58" y1="362.91" x2="788" y2="362.91" style="stroke-width: 0.5;stroke: rgb(255,255,255);stroke-opacity: 1.0;stroke-linejoin: bevel;stroke-dasharray: 2.0, 2.0;shape-rendering:crispEdges;" clip-path="url(#_22430223672395clip-2)"/><line x1="58" y1="339.32" x2="788" y2="339.32" style="stroke-width: 0.5;stroke: rgb(255,255,255);stroke-opacity: 1.0;stroke-linejoin: bevel;stroke-dasharray: 2.0, 2.0;shape-rendering:crispEdges;" clip-path="url(#_22430223672395clip-2)"/><line x1="58" y1="315.74" x2="788" y2="315.74" style="stroke-width: 0.5;stroke: rgb(255,255,255);stroke-opacity: 1.0;stroke-linejoin: bevel;stroke-dasharray: 2.0, 2.0;shape-rendering:crispEdges;" clip-path="url(#_22430223672395clip-2)"/><line x1="58" y1="292.15" x2="788" y2="292.15" style="stroke-width: 0.5;stroke: rgb(255,255,255);stroke-opacity: 1.0;stroke-linejoin: bevel;stroke-dasharray: 2.0, 2.0;shape-rendering:crispEdges;" clip-path="url(#_22430223672395clip-2)"/><line x1="58" y1="268.57" x2="788" y2="268.57" style="stroke-width: 0.5;stroke: rgb(255,255,255);stroke-opacity: 1.0;stroke-linejoin: bevel;stroke-dasharray: 2.0, 2.0;shape-rendering:crispEdges;" clip-path="url(#_22430223672395clip-2)"/><line x1="58" y1="244.98" x2="788" y2="244.98" style="stroke-width: 0.5;stroke: rgb(255,255,255);stroke-opacity: 1.0;stroke-linejoin: bevel;stroke-dasharray: 2.0, 2.0;shape-rendering:crispEdges;" clip-path="url(#_22430223672395clip-2)"/><line x1="58" y1="221.4" x2="788" y2="221.4" style="stroke-width: 0.5;stroke: rgb(255,255,255);stroke-opacity: 1.0;stroke-linejoin: bevel;stroke-dasharray: 2.0, 2.0;shape-rendering:crispEdges;" clip-path="url(#_22430223672395clip-2)"/><line x1="58" y1="197.82" x2="788" y2="197.82" style="stroke-width: 0.5;stroke: rgb(255,255,255);stroke-opacity: 1.0;stroke-linejoin: bevel;stroke-dasharray: 2.0, 2.0;shape-rendering:crispEdges;" clip-path="url(#_22430223672395clip-2)"/><line x1="58" y1="174.23" x2="788" y2="174.23" style="stroke-width: 0.5;stroke: rgb(255,255,255);stroke-opacity: 1.0;stroke-linejoin: bevel;stroke-dasharray: 2.0, 2.0;shape-rendering:crispEdges;" clip-path="url(#_22430223672395clip-2)"/><line x1="58" y1="150.65" x2="788" y2="150.65" style="stroke-width: 0.5;stroke: rgb(255,255,255);stroke-opacity: 1.0;stroke-linejoin: bevel;stroke-dasharray: 2.0, 2.0;shape-rendering:crispEdges;" clip-path="url(#_22430223672395clip-2)"/><line x1="58" y1="127.06" x2="788" y2="127.06" style="stroke-width: 0.5;stroke: rgb(255,255,255);stroke-opacity: 1.0;stroke-linejoin: bevel;stroke-dasharray: 2.0, 2.0;shape-rendering:crispEdges;" clip-path="url(#_22430223672395clip-2)"/><line x1="58" y1="103.48" x2="788" y2="103.48" style="stroke-width: 0.5;stroke: rgb(255,255,255);stroke-opacity: 1.0;stroke-linejoin: bevel;stroke-dasharray: 2.0, 2.0;shape-rendering:crispEdges;" clip-path="url(#_22430223672395clip-2)"/><line x1="58" y1="79.89" x2="788" y2="79.89" style="stroke-width: 0.5;stroke: rgb(255,255,255);stroke-opacity: 1.0;stroke-linejoin: bevel;stroke-dasharray: 2.0, 2.0;shape-rendering:crispEdges;" clip-path="url(#_22430223672395clip-2)"/><line x1="58" y1="56.31" x2="788" y2="56.31" style="stroke-width: 0.5;stroke: rgb(255,255,255);stroke-opacity: 1.0;stroke-linejoin: bevel;stroke-dasharray: 2.0, 2.0;shape-rendering:crispEdges;" clip-path="url(#_22430223672395clip-2)"/><line x1="71.92" y1="268.57" x2="85.84" y2="247.34" style="stroke-width: 1.0;stroke: rgb(255,85,85);stroke-opacity: 1.0;stroke-linecap: square;stroke-linejoin: bevel;shape-rendering:geometricPrecision;" clip-path="url(#_22430223672395clip-2)"/><line x1="85.84" y1="247.34" x2="99.75" y2="228.24" style="stroke-width: 1.0;stroke: rgb(255,85,85);stroke-opacity: 1.0;stroke-linecap: square;stroke-linejoin: bevel;shape-rendering:geometricPrecision;" clip-path="url(#_22430223672395clip-2)"/><line x1="99.75" y1="228.24" x2="113.67" y2="211.05" style="stroke-width: 1.0;stroke: rgb(255,85,85);stroke-opacity: 1.0;stroke-linecap: square;stroke-linejoin: bevel;shape-rendering:geometricPrecision;" clip-path="url(#_22430223672395clip-2)"/><line x1="113.67" y1="211.05" x2="127.59" y2="195.57" style="stroke-width: 1.0;stroke: rgb(255,85,85);stroke-opacity: 1.0;stroke-linecap: square;stroke-linejoin: bevel;shape-rendering:geometricPrecision;" clip-path="url(#_22430223672395clip-2)"/><line x1="127.59" y1="195.57" x2="141.51" y2="181.65" style="stroke-width: 1.0;stroke: rgb(255,85,85);stroke-opacity: 1.0;stroke-linecap: square;stroke-linejoin: bevel;shape-rendering:geometricPrecision;" clip-path="url(#_22430223672395clip-2)"/><line x1="141.51" y1="181.65" x2="155.43" y2="169.11" style="stroke-width: 1.0;stroke: rgb(255,85,85);stroke-opacity: 1.0;stroke-linecap: square;stroke-linejoin: bevel;shape-rendering:geometricPrecision;" clip-path="url(#_22430223672395clip-2)"/><line x1="155.43" y1="169.11" x2="169.34" y2="157.83" style="stroke-width: 1.0;stroke: rgb(255,85,85);stroke-opacity: 1.0;stroke-linecap: square;stroke-linejoin: bevel;shape-rendering:geometricPrecision;" clip-path="url(#_22430223672395clip-2)"/><line x1="169.34" y1="157.83" x2="183.26" y2="147.68" style="stroke-width: 1.0;stroke: rgb(255,85,85);stroke-opacity: 1.0;stroke-linecap: square;stroke-linejoin: bevel;shape-rendering:geometricPrecision;" clip-path="url(#_22430223672395clip-2)"/><line x1="183.26" y1="147.68" x2="197.18" y2="138.54" style="stroke-width: 1.0;stroke: rgb(255,85,85);stroke-opacity: 1.0;stroke-linecap: square;stroke-linejoin: bevel;shape-rendering:geometricPrecision;" clip-path="url(#_22430223672395clip-2)"/><line x1="197.18" y1="138.54" x2="211.1" y2="130.32" style="stroke-width: 1.0;stroke: rgb(255,85,85);stroke-opacity: 1.0;stroke-linecap: square;stroke-linejoin: bevel;shape-rendering:geometricPrecision;" clip-path="url(#_22430223672395clip-2)"/><line x1="211.1" y1="130.32" x2="225.02" y2="122.92" style="stroke-width: 1.0;stroke: rgb(255,85,85);stroke-opacity: 1.0;stroke-linecap: square;stroke-linejoin: bevel;shape-rendering:geometricPrecision;" clip-path="url(#_22430223672395clip-2)"/><line x1="225.02" y1="122.92" x2="238.93" y2="116.26" style="stroke-width: 1.0;stroke: rgb(255,85,85);stroke-opacity: 1.0;stroke-linecap: square;stroke-linejoin: bevel;shape-rendering:geometricPrecision;" clip-path="url(#_22430223672395clip-2)"/><line x1="238.93" y1="116.26" x2="252.85" y2="110.26" style="stroke-width: 1.0;stroke: rgb(255,85,85);stroke-opacity: 1.0;stroke-linecap: square;stroke-linejoin: bevel;shape-rendering:geometricPrecision;" clip-path="url(#_22430223672395clip-2)"/><line x1="252.85" y1="110.26" x2="266.77" y2="104.87" style="stroke-width: 1.0;stroke: rgb(255,85,85);stroke-opacity: 1.0;stroke-linecap: square;stroke-linejoin: bevel;shape-rendering:geometricPrecision;" clip-path="url(#_22430223672395clip-2)"/><line x1="266.77" y1="104.87" x2="280.69" y2="100.01" style="stroke-width: 1.0;stroke: rgb(255,85,85);stroke-opacity: 1.0;stroke-linecap: square;stroke-linejoin: bevel;shape-rendering:geometricPrecision;" clip-path="url(#_22430223672395clip-2)"/><line x1="280.69" y1="100.01" x2="294.61" y2="95.64" style="stroke-width: 1.0;stroke: rgb(255,85,85);stroke-opacity: 1.0;stroke-linecap: square;stroke-linejoin: bevel;shape-rendering:geometricPrecision;" clip-path="url(#_22430223672395clip-2)"/><line x1="294.61" y1="95.64" x2="308.52" y2="91.71" style="stroke-width: 1.0;stroke: rgb(255,85,85);stroke-opacity: 1.0;stroke-linecap: square;stroke-linejoin: bevel;shape-rendering:geometricPrecision;" clip-path="url(#_22430223672395clip-2)"/><line x1="308.52" y1="91.71" x2="322.44" y2="88.17" style="stroke-width: 1.0;stroke: rgb(255,85,85);stroke-opacity: 1.0;stroke-linecap: square;stroke-linejoin: bevel;shape-rendering:geometricPrecision;" clip-path="url(#_22430223672395clip-2)"/><line x1="322.44" y1="88.17" x2="336.36" y2="84.98" style="stroke-width: 1.0;stroke: rgb(255,85,85);stroke-opacity: 1.0;stroke-linecap: square;stroke-linejoin: bevel;shape-rendering:geometricPrecision;" clip-path="url(#_22430223672395clip-2)"/><line x1="336.36" y1="84.98" x2="350.28" y2="82.11" style="stroke-width: 1.0;stroke: rgb(255,85,85);stroke-opacity: 1.0;stroke-linecap: square;stroke-linejoin: bevel;shape-rendering:geometricPrecision;" clip-path="url(#_22430223672395clip-2)"/><line x1="350.28" y1="82.11" x2="364.2" y2="79.53" style="stroke-width: 1.0;stroke: rgb(255,85,85);stroke-opacity: 1.0;stroke-linecap: square;stroke-linejoin: bevel;shape-rendering:geometricPrecision;" clip-path="url(#_22430223672395clip-2)"/><line x1="364.2" y1="79.53" x2="378.11" y2="77.21" style="stroke-width: 1.0;stroke: rgb(255,85,85);stroke-opacity: 1.0;stroke-linecap: square;stroke-linejoin: bevel;shape-rendering:geometricPrecision;" clip-path="url(#_22430223672395clip-2)"/><line x1="378.11" y1="77.21" x2="392.03" y2="75.12" style="stroke-width: 1.0;stroke: rgb(255,85,85);stroke-opacity: 1.0;stroke-linecap: square;stroke-linejoin: bevel;shape-rendering:geometricPrecision;" clip-path="url(#_22430223672395clip-2)"/><line x1="392.03" y1="75.12" x2="405.95" y2="73.24" style="stroke-width: 1.0;stroke: rgb(255,85,85);stroke-opacity: 1.0;stroke-linecap: square;stroke-linejoin: bevel;shape-rendering:geometricPrecision;" clip-path="url(#_22430223672395clip-2)"/><line x1="405.95" y1="73.24" x2="419.87" y2="71.55" style="stroke-width: 1.0;stroke: rgb(255,85,85);stroke-opacity: 1.0;stroke-linecap: square;stroke-linejoin: bevel;shape-rendering:geometricPrecision;" clip-path="url(#_22430223672395clip-2)"/><line x1="419.87" y1="71.55" x2="433.79" y2="70.02" style="stroke-width: 1.0;stroke: rgb(255,85,85);stroke-opacity: 1.0;stroke-linecap: square;stroke-linejoin: bevel;shape-rendering:geometricPrecision;" clip-path="url(#_22430223672395clip-2)"/><line x1="433.79" y1="70.02" x2="447.7" y2="68.65" style="stroke-width: 1.0;stroke: rgb(255,85,85);stroke-opacity: 1.0;stroke-linecap: square;stroke-linejoin: bevel;shape-rendering:geometricPrecision;" clip-path="url(#_22430223672395clip-2)"/><line x1="447.7" y1="68.65" x2="461.62" y2="67.42" style="stroke-width: 1.0;stroke: rgb(255,85,85);stroke-opacity: 1.0;stroke-linecap: square;stroke-linejoin: bevel;shape-rendering:geometricPrecision;" clip-path="url(#_22430223672395clip-2)"/><line x1="461.62" y1="67.42" x2="475.54" y2="66.31" style="stroke-width: 1.0;stroke: rgb(255,85,85);stroke-opacity: 1.0;stroke-linecap: square;stroke-linejoin: bevel;shape-rendering:geometricPrecision;" clip-path="url(#_22430223672395clip-2)"/><line x1="475.54" y1="66.31" x2="489.46" y2="65.31" style="stroke-width: 1.0;stroke: rgb(255,85,85);stroke-opacity: 1.0;stroke-linecap: square;stroke-linejoin: bevel;shape-rendering:geometricPrecision;" clip-path="url(#_22430223672395clip-2)"/><line x1="489.46" y1="65.31" x2="503.38" y2="64.41" style="stroke-width: 1.0;stroke: rgb(255,85,85);stroke-opacity: 1.0;stroke-linecap: square;stroke-linejoin: bevel;shape-rendering:geometricPrecision;" clip-path="url(#_22430223672395clip-2)"/><line x1="503.38" y1="64.41" x2="517.29" y2="63.6" style="stroke-width: 1.0;stroke: rgb(255,85,85);stroke-opacity: 1.0;stroke-linecap: square;stroke-linejoin: bevel;shape-rendering:geometricPrecision;" clip-path="url(#_22430223672395clip-2)"/><line x1="517.29" y1="63.6" x2="531.21" y2="62.87" style="stroke-width: 1.0;stroke: rgb(255,85,85);stroke-opacity: 1.0;stroke-linecap: square;stroke-linejoin: bevel;shape-rendering:geometricPrecision;" clip-path="url(#_22430223672395clip-2)"/><line x1="531.21" y1="62.87" x2="545.13" y2="62.21" style="stroke-width: 1.0;stroke: rgb(255,85,85);stroke-opacity: 1.0;stroke-linecap: square;stroke-linejoin: bevel;shape-rendering:geometricPrecision;" clip-path="url(#_22430223672395clip-2)"/><line x1="545.13" y1="62.21" x2="559.05" y2="61.62" style="stroke-width: 1.0;stroke: rgb(255,85,85);stroke-opacity: 1.0;stroke-linecap: square;stroke-linejoin: bevel;shape-rendering:geometricPrecision;" clip-path="url(#_22430223672395clip-2)"/><line x1="559.05" y1="61.62" x2="572.97" y2="61.09" style="stroke-width: 1.0;stroke: rgb(255,85,85);stroke-opacity: 1.0;stroke-linecap: square;stroke-linejoin: bevel;shape-rendering:geometricPrecision;" clip-path="url(#_22430223672395clip-2)"/><line x1="572.97" y1="61.09" x2="586.88" y2="60.61" style="stroke-width: 1.0;stroke: rgb(255,85,85);stroke-opacity: 1.0;stroke-linecap: square;stroke-linejoin: bevel;shape-rendering:geometricPrecision;" clip-path="url(#_22430223672395clip-2)"/><line x1="586.88" y1="60.61" x2="600.8" y2="60.18" style="stroke-width: 1.0;stroke: rgb(255,85,85);stroke-opacity: 1.0;stroke-linecap: square;stroke-linejoin: bevel;shape-rendering:geometricPrecision;" clip-path="url(#_22430223672395clip-2)"/><line x1="600.8" y1="60.18" x2="614.72" y2="59.79" style="stroke-width: 1.0;stroke: rgb(255,85,85);stroke-opacity: 1.0;stroke-linecap: square;stroke-linejoin: bevel;shape-rendering:geometricPrecision;" clip-path="url(#_22430223672395clip-2)"/><line x1="614.72" y1="59.79" x2="628.64" y2="59.45" style="stroke-width: 1.0;stroke: rgb(255,85,85);stroke-opacity: 1.0;stroke-linecap: square;stroke-linejoin: bevel;shape-rendering:geometricPrecision;" clip-path="url(#_22430223672395clip-2)"/><line x1="628.64" y1="59.45" x2="642.56" y2="59.13" style="stroke-width: 1.0;stroke: rgb(255,85,85);stroke-opacity: 1.0;stroke-linecap: square;stroke-linejoin: bevel;shape-rendering:geometricPrecision;" clip-path="url(#_22430223672395clip-2)"/><line x1="642.56" y1="59.13" x2="656.47" y2="58.85" style="stroke-width: 1.0;stroke: rgb(255,85,85);stroke-opacity: 1.0;stroke-linecap: square;stroke-linejoin: bevel;shape-rendering:geometricPrecision;" clip-path="url(#_22430223672395clip-2)"/><line x1="656.47" y1="58.85" x2="670.39" y2="58.6" style="stroke-width: 1.0;stroke: rgb(255,85,85);stroke-opacity: 1.0;stroke-linecap: square;stroke-linejoin: bevel;shape-rendering:geometricPrecision;" clip-path="url(#_22430223672395clip-2)"/><line x1="670.39" y1="58.6" x2="684.31" y2="58.37" style="stroke-width: 1.0;stroke: rgb(255,85,85);stroke-opacity: 1.0;stroke-linecap: square;stroke-linejoin: bevel;shape-rendering:geometricPrecision;" clip-path="url(#_22430223672395clip-2)"/><line x1="684.31" y1="58.37" x2="698.23" y2="58.16" style="stroke-width: 1.0;stroke: rgb(255,85,85);stroke-opacity: 1.0;stroke-linecap: square;stroke-linejoin: bevel;shape-rendering:geometricPrecision;" clip-path="url(#_22430223672395clip-2)"/><line x1="698.23" y1="58.16" x2="712.15" y2="57.98" style="stroke-width: 1.0;stroke: rgb(255,85,85);stroke-opacity: 1.0;stroke-linecap: square;stroke-linejoin: bevel;shape-rendering:geometricPrecision;" clip-path="url(#_22430223672395clip-2)"/><line x1="712.15" y1="57.98" x2="726.06" y2="57.81" style="stroke-width: 1.0;stroke: rgb(255,85,85);stroke-opacity: 1.0;stroke-linecap: square;stroke-linejoin: bevel;shape-rendering:geometricPrecision;" clip-path="url(#_22430223672395clip-2)"/><line x1="726.06" y1="57.81" x2="739.98" y2="57.66" style="stroke-width: 1.0;stroke: rgb(255,85,85);stroke-opacity: 1.0;stroke-linecap: square;stroke-linejoin: bevel;shape-rendering:geometricPrecision;" clip-path="url(#_22430223672395clip-2)"/><line x1="739.98" y1="57.66" x2="753.9" y2="57.52" style="stroke-width: 1.0;stroke: rgb(255,85,85);stroke-opacity: 1.0;stroke-linecap: square;stroke-linejoin: bevel;shape-rendering:geometricPrecision;" clip-path="url(#_22430223672395clip-2)"/><rect x="58" y="34" width="730" height="494" style="stroke-width: 0.5;stroke: rgb(0,0,0);stroke-opacity: 1.0;stroke-linecap: round;stroke-linejoin: round;shape-rendering:crispEdges;; fill: none" clip-path="url(#_22430223672395clip-0)"/></svg>
